<svg width="629" height="245" viewBox="0 0 629 276" fill="none" xmlns="http://www.w3.org/2000/svg">
<path d="M15 0H614C622.284 0 629 6.71572 629 15V29.8094C629 38.0937 622.284 44.8094 614 44.8094H592.237C583.953 44.8094 577.237 51.5251 577.237 59.8094V90.2047C577.237 98.489 583.953 105.205 592.237 105.205H614C622.284 105.205 629 111.92 629 120.205V129.169C629 137.454 622.284 144.169 614 144.169H592.237C583.953 144.169 577.237 150.885 577.237 159.169V194.76C577.237 203.044 583.953 209.76 592.237 209.76H614C622.284 209.76 629 216.476 629 224.76V261C629 269.284 622.284 276 614 276H15C6.71576 276 0 269.284 0 261V15C0 6.71573 6.71576 0 15 0Z" fill="#2E437C"/>
</svg>