<svg width="491" height="632" viewBox="0 0 491 632" fill="none" xmlns="http://www.w3.org/2000/svg">
<g opacity="0.5">
<path d="M304.217 108.316L301.337 131.027C301.337 131.027 289.981 141.422 285.62 146.168C282.274 141.422 277.666 136.567 271.686 138.488C275.444 132.179 285.346 120.796 291.407 113.034C297.771 104.887 304.217 108.316 304.217 108.316Z" fill="#5C77BC"/>
<path d="M282.301 278.318C285.785 274.917 288.39 272.092 288.39 272.092L304.217 271.406V276.645C304.217 276.645 303.723 278.812 301.282 280.375C298.813 281.939 293.986 284.6 291.38 285.532C287.677 286.849 281.067 288.275 278.132 288.385C274.813 288.522 273.359 286.958 275.115 285.258C278.105 282.35 279.092 281.445 282.329 278.291L282.301 278.318Z" fill="#2C353A"/>
<path d="M329.754 278.62L344.044 277.002C344.044 277.002 346.047 286.081 342.7 295.434C339.354 304.787 333.484 304.897 331.427 304.156C329.37 303.416 328.41 297.464 328.794 290.716C329.178 283.969 329.754 278.62 329.754 278.62Z" fill="#2C353A"/>
<path d="M297.907 159.661C297.907 159.661 327.942 150.61 327.092 157.083C327.092 157.083 337.679 167.177 336.445 186.377C335.869 195.209 338.255 215.232 338.996 230.373C347.855 250.314 349.611 273.354 349.611 273.354C349.611 273.354 350.955 277.194 344.07 280.65C337.186 284.106 327.119 280.513 327.119 280.513C327.119 280.513 327.119 250.807 319.137 233.939C314.776 224.722 313.597 192.768 313.597 192.768L306.712 226.999L306.109 270.391C306.109 270.391 301.199 275.246 295.247 275.246C287.484 275.274 287.1 270.748 287.1 270.748C287.1 270.748 285.756 233.582 288.829 212.763C291.544 194.441 297.962 159.634 297.962 159.634L297.907 159.661Z" fill="#2C353A"/>
<path d="M324.541 95.0938L327.092 109.247C327.092 109.247 324.651 112.182 321.03 114.075C318.013 115.665 315.791 116.351 312.5 117.366C311.128 114.897 311.073 112.154 311.073 112.154L312.5 103.844L324.541 95.0938V95.0938Z" fill="#FFAD97"/>
<path d="M325.941 79.5411C328.601 82.9423 329.424 91.4452 325.749 97.4247C322.485 102.746 315.052 105.763 311.76 106.284C305.863 107.244 299.499 90.9515 306.247 80.9949C312.665 71.5045 322.512 75.1799 325.941 79.5411V79.5411Z" fill="#FFC5B3"/>
<path d="M320.292 72.3281C328.164 73.6173 331.593 83.1077 331.428 87.4414C331.181 94.3809 325.778 97.4255 325.778 97.4255C325.778 97.4255 326.628 93.9695 325.887 92.4883C325.229 91.1992 323.199 90.9797 322.514 93.2563C321.746 93.5032 320.84 93.4209 320.84 93.4209L321.526 88.8677C321.526 88.8677 317.22 84.9454 312.694 84.534C307.153 84.0402 304.712 84.9728 304.712 82.3671C304.685 74.111 312.42 71.039 320.319 72.3281H320.292Z" fill="#2C353A"/>
<path d="M303.283 138.13C303.886 138.295 304.215 138.981 304.023 139.666C303.831 140.379 303.228 140.818 302.625 140.654C302.021 140.489 301.692 139.803 301.884 139.118C302.076 138.405 302.679 137.966 303.283 138.13Z" fill="#2C353A"/>
<path d="M313.957 141.449C314.56 141.613 314.889 142.299 314.697 142.985C314.505 143.698 313.902 144.137 313.298 143.972C312.695 143.807 312.366 143.122 312.558 142.436C312.75 141.723 313.353 141.284 313.957 141.449Z" fill="#2C353A"/>
<path d="M302.353 156.097C302.957 156.262 303.286 156.947 303.094 157.633C302.902 158.346 302.298 158.785 301.695 158.62C301.091 158.456 300.762 157.77 300.954 157.084C301.146 156.371 301.75 155.932 302.353 156.097Z" fill="#2C353A"/>
<path d="M312.996 159.388C313.599 159.553 313.928 160.238 313.736 160.924C313.544 161.637 312.941 162.076 312.337 161.912C311.734 161.747 311.405 161.061 311.597 160.376C311.789 159.662 312.392 159.223 312.996 159.388Z" fill="#2C353A"/>
<path d="M299.228 175.818C299.832 175.982 300.161 176.668 299.969 177.354C299.777 178.067 299.173 178.506 298.57 178.341C297.966 178.177 297.637 177.491 297.829 176.805C298.021 176.092 298.625 175.653 299.228 175.818Z" fill="#2C353A"/>
<path d="M309.869 179.109C310.472 179.273 310.801 179.959 310.609 180.645C310.417 181.358 309.814 181.797 309.21 181.632C308.607 181.468 308.278 180.782 308.47 180.096C308.662 179.383 309.265 178.944 309.869 179.109Z" fill="#2C353A"/>
<path d="M292.477 139.392C292.312 128.421 292.834 116.105 298.786 109.248C300.815 106.917 310.69 106.094 310.69 106.094L310.196 113.143L312.473 117.367L326.544 106.395C326.544 106.395 339.353 113.088 342.397 123.072C343.22 134.784 336.912 148.224 338.969 158.318C339.079 158.839 339.188 159.607 339.325 160.54C340.203 160.595 340.971 160.622 341.575 160.677C342.809 169.043 343.549 182.072 343.988 193.948C344.18 195.1 344.619 221.789 344.619 221.789C344.619 221.789 329.698 228.838 313.625 230.127C297.551 231.389 284.907 216.742 284.907 216.742C284.907 216.742 290.886 173.678 291.682 164.791C292.12 159.772 292.203 148.17 292.477 139.42V139.392Z" fill="#7A92DA"/>
<path d="M337.983 115.09C346.898 116.27 347.995 125.87 350.436 139.392C352.713 151.845 351.149 161.034 350.217 166.135C349.641 169.345 347.968 173.102 344.649 175.324C344.1 174.583 337.106 165.532 332.607 162.679L335.871 158.318C335.871 158.318 330.605 138.377 330.221 132.48C329.837 126.473 333.074 114.432 337.956 115.063L337.983 115.09Z" fill="#5C77BC"/>
<path d="M312.116 106.095C311.32 110.593 312.527 117.34 312.527 117.34L304.244 111.526L308.578 105.189C308.934 105.601 310.443 106.725 312.143 106.095H312.116Z" fill="#5C77BC"/>
<path d="M308.441 196.774C306.959 174.913 309.922 149.623 309.565 142.711C309.401 139.53 309.017 133.934 309.565 129.244C310.223 123.703 311.842 119.287 311.842 119.287C311.842 119.287 311.156 127.955 310.662 135.031C310.278 140.544 311.156 158.922 310.662 166.766C310.169 174.611 309.538 184.293 310.662 194.305C311.375 200.723 310.937 230.154 310.937 230.154L307.261 229.853C307.261 229.853 308.879 203.274 308.413 196.746L308.441 196.774Z" fill="#5C77BC"/>
<path d="M283.317 134.758C285.895 136.596 288.913 141.972 287.651 145.29C285.841 150.036 280.273 148.198 280.273 148.198C280.273 148.198 280.821 143.974 277.228 140.792C275.089 138.9 272.922 140.792 272.922 140.792C272.922 140.792 270.371 137.254 272.62 134.484C274.869 131.713 280.739 132.92 283.317 134.758V134.758Z" fill="#8FA9EA"/>
<path d="M310.251 189.917C310.525 189.807 310.662 189.725 310.662 189.725C310.662 189.725 310.8 189.807 310.251 189.917Z" fill="#FFC5B3"/>
<path d="M310.254 189.916C310.803 189.807 310.666 189.724 310.666 189.724C310.666 189.724 310.501 189.779 310.254 189.916C309.815 189.999 308.91 190.108 307.045 190.191C304.055 190.328 303.397 189.011 305.317 188.024C307.237 187.009 313.793 183.8 315.466 182.922C323.612 178.561 332.088 168.412 332.088 168.412L341.605 177.134C341.605 177.134 331.457 184.431 324.216 187.365C321.061 188.655 321.061 188.792 317.934 192.741C315.905 195.292 312.312 197.761 310.693 197.953C303.863 198.776 303.754 198.392 302.519 196.499C301.121 194.36 308.417 190.794 310.282 189.944L310.254 189.916Z" fill="#FFC5B3"/>
<path d="M334.744 159.746C334.744 159.746 344.234 163.312 346.155 170.553C348.075 177.794 342.424 181.552 341.19 178.946C337.679 171.623 332.413 171.732 330.136 168.359C329.45 167.344 328.902 165.15 330.136 163.696C332.44 160.98 334.744 159.746 334.744 159.746V159.746Z" fill="#8FA9EA"/>
<path d="M318.288 110.839C320.949 108.727 326.133 104.092 326.133 104.092C326.133 104.092 327.697 106.396 327.751 107.603C327.806 108.81 323.253 117.779 323.253 117.779L312.501 117.34C312.501 117.34 315.628 112.924 318.288 110.812V110.839Z" fill="#5C77BC"/>
<path d="M322.052 69.0925C328.361 72.9325 334.176 75.2091 336.041 80.5029C337.906 85.7966 334.587 93.4493 332.53 95.3145C330.445 97.1796 327.099 97.0973 327.099 97.0973C327.099 97.0973 311.081 86.1806 304.223 84.2606C304.223 84.2606 299.259 79.6526 303.126 72.6857C306.994 65.6913 315.716 65.2799 322.025 69.1199L322.052 69.0925Z" fill="#7A92DA"/>
<path d="M318.207 89.389C324.927 93.4485 327.066 97.0965 327.066 97.0965L325.037 98.4131C325.037 98.4131 321.361 93.8051 318.042 91.3365C311.459 86.3993 303.999 86.0153 303.999 86.0153L304.191 84.2324C304.191 84.2324 309.677 84.2324 318.179 89.389H318.207Z" fill="#5C77BC"/>
<path d="M309.65 84.2345C310.061 85.6059 309.43 85.7431 309.43 85.7431C309.43 85.7431 307.154 83.5488 306.934 81.2448C306.715 78.9682 307.51 76.6367 307.51 76.6367C307.51 76.6367 309.211 82.8631 309.622 84.2071L309.65 84.2345Z" fill="#5C77BC"/>
<path d="M316.286 85.166C316.231 87.1408 315.271 88.4849 315.271 88.4849H314.531C314.531 88.4849 313.9 87.086 313.9 85.4677C313.9 83.8768 316.643 79.5156 316.643 79.5156C316.643 79.5156 316.341 83.1911 316.286 85.166Z" fill="#5C77BC"/>
<path d="M325.311 84.7539C325.311 84.7539 323.912 88.1277 322.952 89.1699C321.992 90.2122 319.112 91.3643 319.112 91.3643L318.563 90.706C318.563 90.706 319.441 89.1151 320.593 88.1277C321.745 87.1402 325.311 84.7539 325.311 84.7539V84.7539Z" fill="#5C77BC"/>
<path d="M325.311 93.0386C326.518 92.3528 330.688 90.6797 330.688 90.6797C330.688 90.6797 328.767 93.1209 327.78 94.218C326.793 95.3152 323.995 95.6169 323.995 95.6169L323.638 94.8214C323.638 94.8214 324.077 93.7243 325.284 93.0386H325.311Z" fill="#5C77BC"/>
<path d="M312.802 68.0233C314.997 68.0781 315.792 68.9833 320.126 70.245C323.171 71.1227 324.816 72.3844 325.667 74.9079C326.078 76.1696 327.559 75.5388 329.26 75.7856C330.768 76.0051 332.359 77.2119 333.347 78.8851C334.8 81.4085 335.98 83.3834 335.431 85.6326C334.883 87.9092 333.018 86.1811 331.07 85.7697C329.123 85.3583 331.235 81.0245 329.616 80.1194C327.971 79.2142 323.911 80.9422 323.006 80.1194C322.101 79.2965 323.061 74.9353 320.784 74.2496C318.508 73.5639 315.984 75.8679 314.805 73.893C313.625 71.9182 311.98 70.3273 309.813 70.7936C306.933 71.4244 305.89 70.6016 306.933 69.669C308.386 68.3798 310.114 67.941 312.83 68.0233H312.802Z" fill="#8FA9EA"/>
<path d="M277.723 120.578C280.493 127.709 283.099 134.594 284.196 140.162C285.265 145.62 284.607 146.909 282.852 149.131C282.139 150.036 280.932 150.777 278.353 149.57C276.241 148.61 273.636 147.595 272.429 144.578C270.125 138.736 267.903 125.049 267.958 119.206C268.04 113.336 269.713 101.844 269.713 101.844C269.713 101.844 274.925 113.446 277.695 120.605L277.723 120.578Z" fill="#FFC5B3"/>
<path d="M483.266 395.056L120.327 187.42L118.983 92.9551L483.266 303.252V395.056Z" fill="#2C353A"/>
<path d="M490.289 390.998L483.267 395.057V303.253L490.289 299.221V390.998Z" fill="#3A4449"/>
<path d="M490.289 299.221L483.267 303.253L118.985 92.9559L126.007 88.8965L490.289 299.221Z" fill="#525D60"/>
<path d="M472.573 300.865L473.424 301.359C477.373 303.608 479.814 307.832 479.814 312.385V313.675L468.788 320.148L436.285 339.238L429.044 326.456L454.086 311.727L472.573 300.838V300.865Z" fill="#E4E6EA"/>
<path d="M472.572 300.866L429.043 326.457L71.6176 121.015L115.147 95.4512L472.572 300.866Z" fill="#B8BCC1"/>
<path d="M479.814 326.43L436.285 352.021V339.239L479.814 313.676V326.43Z" fill="#89919B"/>
<path d="M436.287 337.95V352.049L71.6208 142.492V121.043L429.896 326.924C433.846 329.173 436.287 333.397 436.287 337.95V337.95Z" fill="#9EA4AD"/>
<path d="M468.047 298.231L424.133 323.603L420.348 321.409L464.262 296.037L468.047 298.231Z" fill="#525D60"/>
<path d="M447.527 286.548L403.614 311.892L399.829 309.698L443.742 284.354L447.527 286.548Z" fill="#525D60"/>
<path d="M427.012 274.835L383.098 300.179L379.313 298.012L423.227 272.641L427.012 274.835Z" fill="#525D60"/>
<path d="M406.717 263.013L362.776 288.384L358.991 286.19L402.904 260.846L406.717 263.013Z" fill="#525D60"/>
<path d="M386.279 251.274L342.338 276.619L338.553 274.452L382.467 249.08L386.279 251.274Z" fill="#525D60"/>
<path d="M365.768 239.561L321.827 264.933L318.041 262.739L361.982 237.395L365.768 239.561Z" fill="#525D60"/>
<path d="M345.246 227.876L301.333 253.22L297.547 251.026L341.461 225.682L345.246 227.876Z" fill="#525D60"/>
<path d="M324.924 216.054L281.01 241.398L277.198 239.231L321.139 213.859L324.924 216.054Z" fill="#525D60"/>
<path d="M304.486 204.315L260.573 229.66L256.76 227.493L300.701 202.121L304.486 204.315Z" fill="#525D60"/>
<path d="M284.08 192.55L240.057 217.949L236.272 215.782L280.295 190.355L284.08 192.55Z" fill="#525D60"/>
<path d="M263.645 180.784L219.539 206.265L215.754 204.071L259.859 178.617L263.645 180.784Z" fill="#525D60"/>
<path d="M243.154 169.099L199.213 194.443L195.428 192.276L239.342 166.904L243.154 169.099Z" fill="#525D60"/>
<path d="M222.691 157.331L178.778 182.703L174.993 180.508L218.906 155.164L222.691 157.331Z" fill="#525D60"/>
<path d="M202.178 145.645L158.264 170.99L154.479 168.823L198.42 143.451L202.178 145.645Z" fill="#525D60"/>
<path d="M181.688 133.933L137.747 159.304L133.961 157.11L177.902 131.738L181.688 133.933Z" fill="#525D60"/>
<path d="M161.363 122.112L117.45 147.484L113.637 145.29L157.578 119.945L161.363 122.112Z" fill="#525D60"/>
<path d="M140.93 110.372L96.9886 135.744L93.2035 133.549L137.144 108.205L140.93 110.372Z" fill="#525D60"/>
<path d="M118.986 97.6181L75.0453 122.99L71.2601 120.795L115.201 95.4512L118.986 97.6181Z" fill="#525D60"/>
<path d="M424.266 428.765L59.9834 221.266V126.637L424.266 336.961V428.765Z" fill="#2C353A"/>
<path d="M431.289 424.707L424.267 428.766V336.962L431.289 332.93V424.707Z" fill="#3A4449"/>
<path d="M431.289 332.93L424.267 336.962L59.985 126.637L67.0068 122.605L431.289 332.93Z" fill="#525D60"/>
<path d="M113.04 77.4039V76.2793L116.084 76.8279L119.129 76.2793V77.4039L120.281 77.6233C120.281 77.6233 125.41 93.6417 125.41 98.7161V120.357H106.704V98.7161C106.704 93.6417 111.833 77.6233 111.833 77.6233L112.985 77.4039H113.04Z" fill="white"/>
<path d="M116.086 76.1426C118.911 76.1426 121.215 77.4317 121.215 79.0226C121.215 80.6135 118.911 81.9026 116.086 81.9026C113.26 81.9026 110.956 80.6135 110.956 79.0226C110.956 77.4317 113.26 76.1426 116.086 76.1426Z" fill="#D3DBDD"/>
<path d="M116.247 75.6484C118.524 75.6484 120.389 76.6907 120.389 77.9799C120.389 79.269 118.551 80.3113 116.247 80.3113C113.943 80.3113 112.105 79.269 112.105 77.9799C112.105 76.6907 113.943 75.6484 116.247 75.6484Z" fill="#E4E6EA"/>
<path d="M116.084 102.721C121.241 102.721 125.438 100.363 125.438 97.4551V120.358H125.41C125.41 120.358 125.438 120.468 125.438 120.523C125.438 123.43 121.241 125.789 116.084 125.789C110.928 125.789 106.731 123.43 106.731 120.523C106.731 120.468 106.731 120.413 106.758 120.358H106.731V97.4551C106.731 100.363 110.928 102.721 116.084 102.721Z" fill="#E4E6EA"/>
<path d="M112.133 73.9492H120.389V77.9538H112.133V73.9492Z" fill="#E4E6EA"/>
<path d="M116.247 71.6172C118.524 71.6172 120.389 72.6595 120.389 73.9486C120.389 75.2378 118.551 76.2801 116.247 76.2801C113.943 76.2801 112.105 75.2378 112.105 73.9486C112.105 72.6595 113.943 71.6172 116.247 71.6172Z" fill="white"/>
<path d="M116.251 72.0547C118.116 72.0547 119.625 72.905 119.625 73.9473C119.625 74.9896 118.116 75.8399 116.251 75.8399C114.386 75.8399 112.878 74.9896 112.878 73.9473C112.878 72.905 114.386 72.0547 116.251 72.0547Z" fill="#D3DBDD"/>
<path d="M122.448 105.684C122.914 105.437 123.353 105.19 123.71 104.888C124.779 104.038 125.438 102.996 125.438 101.871V117.451C125.438 120.331 121.323 122.662 116.249 122.717V107.137C117.977 107.137 119.595 106.808 120.967 106.342C121.488 106.15 122.009 105.958 122.448 105.711V105.684Z" fill="#7A92DA"/>
<path d="M241.468 154.015V152.891L244.512 153.439L247.557 152.891V154.015L248.709 154.235C248.709 154.235 253.838 170.253 253.838 175.327V196.969H235.131V175.327C235.131 170.253 240.261 154.235 240.261 154.235L241.413 154.015H241.468Z" fill="white"/>
<path d="M244.513 152.779C247.339 152.779 249.643 154.068 249.643 155.659C249.643 157.25 247.339 158.539 244.513 158.539C241.688 158.539 239.384 157.25 239.384 155.659C239.384 154.068 241.688 152.779 244.513 152.779Z" fill="#D3DBDD"/>
<path d="M244.675 152.258C246.951 152.258 248.816 153.3 248.816 154.589C248.816 155.878 246.979 156.921 244.675 156.921C242.371 156.921 240.533 155.878 240.533 154.589C240.533 153.3 242.371 152.258 244.675 152.258Z" fill="#E4E6EA"/>
<path d="M244.512 179.331C249.669 179.331 253.865 176.972 253.865 174.064V196.968H253.838C253.838 196.968 253.865 197.077 253.865 197.132C253.865 200.04 249.669 202.398 244.512 202.398C239.355 202.398 235.159 200.04 235.159 197.132C235.159 197.077 235.159 197.022 235.186 196.968H235.159V174.064C235.159 176.972 239.355 179.331 244.512 179.331Z" fill="#E4E6EA"/>
<path d="M240.537 150.586H248.793V154.591H240.537V150.586Z" fill="#E4E6EA"/>
<path d="M244.675 148.254C246.951 148.254 248.816 149.296 248.816 150.585C248.816 151.875 246.979 152.917 244.675 152.917C242.371 152.917 240.533 151.875 240.533 150.585C240.533 149.296 242.371 148.254 244.675 148.254V148.254Z" fill="white"/>
<path d="M244.679 148.691C246.544 148.691 248.053 149.542 248.053 150.584C248.053 151.626 246.544 152.477 244.679 152.477C242.814 152.477 241.305 151.626 241.305 150.584C241.305 149.542 242.814 148.691 244.679 148.691Z" fill="#D3DBDD"/>
<path d="M250.876 182.32C251.342 182.074 251.781 181.827 252.137 181.525C253.207 180.675 253.865 179.632 253.865 178.508V194.087C253.865 196.967 249.751 199.299 244.677 199.354V183.774C246.405 183.774 248.023 183.445 249.394 182.979C249.915 182.787 250.437 182.595 250.876 182.348V182.32Z" fill="#7A92DA"/>
<path d="M276.839 173.13V172.006L279.883 172.554L282.928 172.006V173.13L284.08 173.35C284.08 173.35 289.209 189.368 289.209 194.443V216.084H270.503V194.443C270.503 189.368 275.632 173.35 275.632 173.35L276.784 173.13H276.839Z" fill="white"/>
<path d="M279.884 171.896C282.71 171.896 285.014 173.186 285.014 174.776C285.014 176.367 282.71 177.657 279.884 177.657C277.059 177.657 274.755 176.367 274.755 174.776C274.755 173.186 277.059 171.896 279.884 171.896Z" fill="#D3DBDD"/>
<path d="M280.046 171.375C282.322 171.375 284.188 172.417 284.188 173.706C284.188 174.996 282.35 176.038 280.046 176.038C277.742 176.038 275.904 174.996 275.904 173.706C275.904 172.417 277.742 171.375 280.046 171.375Z" fill="#E4E6EA"/>
<path d="M279.883 198.448C285.04 198.448 289.236 196.089 289.236 193.182V216.085H289.209C289.209 216.085 289.236 216.194 289.236 216.249C289.236 219.157 285.04 221.516 279.883 221.516C274.726 221.516 270.53 219.157 270.53 216.249C270.53 216.194 270.53 216.14 270.557 216.085H270.53V193.182C270.53 196.089 274.726 198.448 279.883 198.448Z" fill="#E4E6EA"/>
<path d="M275.906 169.703H284.162V173.708H275.906V169.703Z" fill="#E4E6EA"/>
<path d="M280.046 167.371C282.322 167.371 284.188 168.413 284.188 169.703C284.188 170.992 282.35 172.034 280.046 172.034C277.742 172.034 275.904 170.992 275.904 169.703C275.904 168.413 277.742 167.371 280.046 167.371Z" fill="white"/>
<path d="M280.05 167.811C281.915 167.811 283.424 168.661 283.424 169.703C283.424 170.745 281.915 171.596 280.05 171.596C278.185 171.596 276.676 170.745 276.676 169.703C276.676 168.661 278.185 167.811 280.05 167.811Z" fill="#D3DBDD"/>
<path d="M286.247 201.438C286.713 201.191 287.152 200.944 287.508 200.642C288.578 199.792 289.236 198.75 289.236 197.625V213.205C289.236 216.085 285.122 218.416 280.048 218.471V202.891C281.776 202.891 283.394 202.562 284.765 202.096C285.287 201.904 285.808 201.712 286.247 201.465V201.438Z" fill="#7A92DA"/>
<path d="M309.018 191.152V190.027L312.063 190.576L315.108 190.027V191.152L316.259 191.371C316.259 191.371 321.389 207.39 321.389 212.464V234.105H302.682V212.464C302.682 207.39 307.811 191.371 307.811 191.371L308.963 191.152H309.018Z" fill="white"/>
<path d="M312.088 189.916C314.913 189.916 317.217 191.205 317.217 192.796C317.217 194.387 314.913 195.676 312.088 195.676C309.262 195.676 306.958 194.387 306.958 192.796C306.958 191.205 309.262 189.916 312.088 189.916Z" fill="#D3DBDD"/>
<path d="M312.225 189.395C314.502 189.395 316.367 190.437 316.367 191.726C316.367 193.015 314.529 194.057 312.225 194.057C309.921 194.057 308.084 193.015 308.084 191.726C308.084 190.437 309.921 189.395 312.225 189.395Z" fill="#E4E6EA"/>
<path d="M312.086 216.468C317.243 216.468 321.439 214.109 321.439 211.201V234.104H321.412C321.412 234.104 321.439 234.214 321.439 234.269C321.439 237.176 317.243 239.535 312.086 239.535C306.93 239.535 302.733 237.176 302.733 234.269C302.733 234.214 302.733 234.159 302.76 234.104H302.733V211.201C302.733 214.109 306.93 216.468 312.086 216.468Z" fill="#E4E6EA"/>
<path d="M308.111 187.723H316.367V191.727H308.111V187.723Z" fill="#E4E6EA"/>
<path d="M312.225 185.391C314.502 185.391 316.367 186.433 316.367 187.722C316.367 189.011 314.529 190.054 312.225 190.054C309.921 190.054 308.084 189.011 308.084 187.722C308.084 186.433 309.921 185.391 312.225 185.391Z" fill="white"/>
<path d="M312.224 185.801C314.089 185.801 315.598 186.651 315.598 187.693C315.598 188.736 314.089 189.586 312.224 189.586C310.359 189.586 308.85 188.736 308.85 187.693C308.85 186.651 310.359 185.801 312.224 185.801Z" fill="#D3DBDD"/>
<path d="M318.426 219.43C318.893 219.183 319.331 218.936 319.688 218.634C320.758 217.784 321.416 216.742 321.416 215.617V231.197C321.416 234.077 317.302 236.408 312.227 236.463V220.884C313.955 220.884 315.574 220.554 316.945 220.088C317.466 219.896 317.987 219.704 318.426 219.457V219.43Z" fill="#7A92DA"/>
<path d="M339.983 209.558V208.461L343.028 209.01L346.072 208.461V209.558L347.224 209.778C347.224 209.778 352.354 225.796 352.354 230.87V252.512H333.647V230.87C333.647 225.796 338.776 209.778 338.776 209.778L339.928 209.558H339.983Z" fill="white"/>
<path d="M343.06 208.295C345.885 208.295 348.189 209.584 348.189 211.175C348.189 212.766 345.885 214.055 343.06 214.055C340.235 214.055 337.931 212.766 337.931 211.175C337.931 209.584 340.235 208.295 343.06 208.295Z" fill="#D3DBDD"/>
<path d="M343.196 207.801C345.473 207.801 347.338 208.843 347.338 210.132C347.338 211.421 345.5 212.464 343.196 212.464C340.892 212.464 339.054 211.421 339.054 210.132C339.054 208.843 340.892 207.801 343.196 207.801Z" fill="#E4E6EA"/>
<path d="M343.057 234.874C348.214 234.874 352.41 232.515 352.41 229.607V252.51H352.383C352.383 252.51 352.41 252.62 352.41 252.675C352.41 255.583 348.214 257.941 343.057 257.941C337.9 257.941 333.704 255.583 333.704 252.675C333.704 252.62 333.704 252.565 333.731 252.51H333.704V229.607C333.704 232.515 337.9 234.874 343.057 234.874Z" fill="#E4E6EA"/>
<path d="M339.082 206.102H347.338V210.106H339.082V206.102Z" fill="#E4E6EA"/>
<path d="M343.196 203.77C345.473 203.77 347.338 204.812 347.338 206.101C347.338 207.39 345.5 208.432 343.196 208.432C340.892 208.432 339.054 207.39 339.054 206.101C339.054 204.812 340.892 203.77 343.196 203.77Z" fill="white"/>
<path d="M343.195 204.207C345.06 204.207 346.568 205.057 346.568 206.1C346.568 207.142 345.06 207.992 343.195 207.992C341.329 207.992 339.821 207.142 339.821 206.1C339.821 205.057 341.329 204.207 343.195 204.207Z" fill="#D3DBDD"/>
<path d="M349.42 237.836C349.887 237.589 350.326 237.342 350.682 237.041C351.752 236.19 352.41 235.148 352.41 234.023V249.603C352.41 252.483 348.296 254.815 343.222 254.869V239.29C344.95 239.29 346.568 238.961 347.939 238.494C348.46 238.302 348.982 238.11 349.42 237.863V237.836Z" fill="#7A92DA"/>
<path d="M372.52 227.933V226.809L375.565 227.357L378.609 226.809V227.933L379.761 228.153C379.761 228.153 384.891 244.171 384.891 249.245V270.887H366.184V249.245C366.184 244.171 371.313 228.153 371.313 228.153L372.465 227.933H372.52Z" fill="white"/>
<path d="M375.59 226.699C378.415 226.699 380.719 227.988 380.719 229.579C380.719 231.17 378.415 232.459 375.59 232.459C372.764 232.459 370.46 231.17 370.46 229.579C370.46 227.988 372.764 226.699 375.59 226.699Z" fill="#D3DBDD"/>
<path d="M375.727 226.18C378.004 226.18 379.869 227.222 379.869 228.511C379.869 229.8 378.031 230.843 375.727 230.843C373.423 230.843 371.586 229.8 371.586 228.511C371.586 227.222 373.423 226.18 375.727 226.18Z" fill="#E4E6EA"/>
<path d="M375.588 253.251C380.745 253.251 384.941 250.892 384.941 247.984V270.887H384.914C384.914 270.887 384.941 270.997 384.941 271.052C384.941 273.959 380.745 276.318 375.588 276.318C370.432 276.318 366.235 273.959 366.235 271.052C366.235 270.997 366.235 270.942 366.262 270.887H366.235V247.984C366.235 250.892 370.432 253.251 375.588 253.251Z" fill="#E4E6EA"/>
<path d="M371.613 224.506H379.869V228.51H371.613V224.506Z" fill="#E4E6EA"/>
<path d="M375.727 222.174C378.004 222.174 379.869 223.216 379.869 224.505C379.869 225.794 378.031 226.837 375.727 226.837C373.423 226.837 371.586 225.794 371.586 224.505C371.586 223.216 373.423 222.174 375.727 222.174Z" fill="white"/>
<path d="M375.726 222.613C377.591 222.613 379.1 223.464 379.1 224.506C379.1 225.548 377.591 226.398 375.726 226.398C373.861 226.398 372.352 225.548 372.352 224.506C372.352 223.464 373.861 222.613 375.726 222.613Z" fill="#D3DBDD"/>
<path d="M381.926 256.24C382.393 255.993 382.831 255.747 383.188 255.445C384.258 254.595 384.916 253.552 384.916 252.428V268.007C384.916 270.887 380.802 273.219 375.727 273.274V257.694C377.455 257.694 379.074 257.365 380.445 256.899C380.966 256.707 381.487 256.515 381.926 256.268V256.24Z" fill="#7A92DA"/>
<path d="M403.317 247.164V246.039L406.362 246.588L409.406 246.039V247.164L410.558 247.383C410.558 247.383 415.688 263.402 415.688 268.476V290.117H396.981V268.476C396.981 263.402 402.11 247.383 402.11 247.383L403.262 247.164H403.317Z" fill="white"/>
<path d="M406.363 245.928C409.188 245.928 411.492 247.217 411.492 248.808C411.492 250.399 409.188 251.688 406.363 251.688C403.538 251.688 401.234 250.399 401.234 248.808C401.234 247.217 403.538 245.928 406.363 245.928Z" fill="#D3DBDD"/>
<path d="M406.524 245.406C408.801 245.406 410.666 246.449 410.666 247.738C410.666 249.027 408.828 250.069 406.524 250.069C404.22 250.069 402.382 249.027 402.382 247.738C402.382 246.449 404.22 245.406 406.524 245.406Z" fill="#E4E6EA"/>
<path d="M406.362 272.507C411.518 272.507 415.715 270.148 415.715 267.24V290.143H415.687C415.687 290.143 415.715 290.253 415.715 290.308C415.715 293.215 411.518 295.574 406.362 295.574C401.205 295.574 397.008 293.215 397.008 290.308C397.008 290.253 397.008 290.198 397.036 290.143H397.008V267.24C397.008 270.148 401.205 272.507 406.362 272.507Z" fill="#E4E6EA"/>
<path d="M402.385 243.734H410.641V247.739H402.385V243.734Z" fill="#E4E6EA"/>
<path d="M406.524 241.402C408.801 241.402 410.666 242.445 410.666 243.734C410.666 245.023 408.828 246.065 406.524 246.065C404.22 246.065 402.382 245.023 402.382 243.734C402.382 242.445 404.22 241.402 406.524 241.402Z" fill="white"/>
<path d="M406.529 241.84C408.394 241.84 409.902 242.69 409.902 243.732C409.902 244.775 408.394 245.625 406.529 245.625C404.663 245.625 403.155 244.775 403.155 243.732C403.155 242.69 404.663 241.84 406.529 241.84Z" fill="#D3DBDD"/>
<path d="M412.725 275.469C413.191 275.222 413.63 274.975 413.987 274.673C415.057 273.823 415.715 272.781 415.715 271.656V287.236C415.715 290.116 411.601 292.447 406.526 292.502V276.923C408.254 276.923 409.872 276.593 411.244 276.127C411.765 275.935 412.286 275.743 412.725 275.496V275.469Z" fill="#7A92DA"/>
<path d="M208.483 133.964V132.867L211.528 133.416L214.572 132.867V133.964L215.724 134.184C215.724 134.184 220.854 150.202 220.854 155.277V176.918H202.147V155.277C202.147 150.202 207.276 134.184 207.276 134.184L208.428 133.964H208.483Z" fill="white"/>
<path d="M211.529 132.729C214.354 132.729 216.658 134.018 216.658 135.609C216.658 137.199 214.354 138.489 211.529 138.489C208.704 138.489 206.4 137.199 206.4 135.609C206.4 134.018 208.704 132.729 211.529 132.729Z" fill="#D3DBDD"/>
<path d="M211.667 132.207C213.943 132.207 215.809 133.249 215.809 134.538C215.809 135.828 213.971 136.87 211.667 136.87C209.363 136.87 207.525 135.828 207.525 134.538C207.525 133.249 209.363 132.207 211.667 132.207Z" fill="#E4E6EA"/>
<path d="M211.528 159.28C216.684 159.28 220.881 156.921 220.881 154.014V176.917H220.853C220.853 176.917 220.881 177.026 220.881 177.081C220.881 179.989 216.684 182.348 211.528 182.348C206.371 182.348 202.174 179.989 202.174 177.081C202.174 177.026 202.174 176.972 202.202 176.917H202.174V154.014C202.174 156.921 206.371 159.28 211.528 159.28Z" fill="#E4E6EA"/>
<path d="M207.552 130.535H215.809V134.54H207.552V130.535Z" fill="#E4E6EA"/>
<path d="M211.667 128.203C213.943 128.203 215.809 129.245 215.809 130.535C215.809 131.824 213.971 132.866 211.667 132.866C209.363 132.866 207.525 131.824 207.525 130.535C207.525 129.245 209.363 128.203 211.667 128.203Z" fill="white"/>
<path d="M211.665 128.641C213.53 128.641 215.039 129.491 215.039 130.533C215.039 131.576 213.53 132.426 211.665 132.426C209.8 132.426 208.292 131.576 208.292 130.533C208.292 129.491 209.8 128.641 211.665 128.641Z" fill="#D3DBDD"/>
<path d="M217.891 162.27C218.357 162.023 218.796 161.776 219.153 161.474C220.223 160.624 220.881 159.582 220.881 158.457V174.037C220.881 176.917 216.767 179.248 211.692 179.303V163.723C213.42 163.723 215.039 163.394 216.41 162.928C216.931 162.736 217.452 162.544 217.891 162.297V162.27Z" fill="#7A92DA"/>
<path d="M214.223 129.328C213.592 128.916 212.714 128.642 211.672 128.642C210.629 128.642 209.669 128.944 209.066 129.383V128.203H214.223V129.328Z" fill="#89919B"/>
<path d="M214.223 129.326V131.713C213.592 132.124 212.714 132.398 211.672 132.398C210.629 132.398 209.669 132.097 209.066 131.658V129.381C209.669 128.942 210.602 128.641 211.672 128.641C212.741 128.641 213.619 128.915 214.223 129.326V129.326Z" fill="#89919B"/>
<path d="M218.631 125.57C218.631 127.792 215.449 129.574 211.527 129.574C207.604 129.574 204.423 127.792 204.423 125.57V101.789H218.658V125.57H218.631Z" fill="#819396"/>
<path d="M176.299 114.105V112.98L179.344 113.529L182.389 112.98V114.105L183.541 114.324C183.541 114.324 188.67 130.343 188.67 135.417V157.059H169.963V135.417C169.963 130.343 175.093 114.324 175.093 114.324L176.245 114.105H176.299Z" fill="white"/>
<path d="M179.369 112.869C182.194 112.869 184.498 114.158 184.498 115.749C184.498 117.34 182.194 118.629 179.369 118.629C176.544 118.629 174.24 117.34 174.24 115.749C174.24 114.158 176.544 112.869 179.369 112.869Z" fill="#D3DBDD"/>
<path d="M179.507 112.348C181.783 112.348 183.648 113.39 183.648 114.679C183.648 115.968 181.811 117.011 179.507 117.011C177.203 117.011 175.365 115.968 175.365 114.679C175.365 113.39 177.203 112.348 179.507 112.348Z" fill="#E4E6EA"/>
<path d="M179.367 139.421C184.524 139.421 188.721 137.062 188.721 134.154V157.057H188.693C188.693 157.057 188.721 157.167 188.721 157.222C188.721 160.129 184.524 162.488 179.367 162.488C174.211 162.488 170.014 160.129 170.014 157.222C170.014 157.167 170.014 157.112 170.042 157.057H170.014V134.154C170.014 137.062 174.211 139.421 179.367 139.421V139.421Z" fill="#E4E6EA"/>
<path d="M175.392 110.676H183.648V114.68H175.392V110.676Z" fill="#E4E6EA"/>
<path d="M179.507 108.344C181.783 108.344 183.648 109.386 183.648 110.675C183.648 111.964 181.811 113.007 179.507 113.007C177.203 113.007 175.365 111.964 175.365 110.675C175.365 109.386 177.203 108.344 179.507 108.344Z" fill="white"/>
<path d="M179.505 108.781C181.37 108.781 182.879 109.632 182.879 110.674C182.879 111.716 181.37 112.566 179.505 112.566C177.64 112.566 176.131 111.716 176.131 110.674C176.131 109.632 177.64 108.781 179.505 108.781Z" fill="#D3DBDD"/>
<path d="M185.702 142.41C186.168 142.163 186.607 141.917 186.963 141.615C188.033 140.765 188.691 139.722 188.691 138.598V154.177C188.691 157.057 184.577 159.389 179.503 159.444V143.864C181.231 143.864 182.849 143.535 184.221 143.069C184.742 142.877 185.263 142.685 185.702 142.438V142.41Z" fill="#7A92DA"/>
<path d="M182.055 109.468C181.424 109.057 180.546 108.783 179.504 108.783C178.462 108.783 177.501 109.084 176.898 109.523V108.344H182.055V109.468Z" fill="#89919B"/>
<path d="M182.055 109.467V111.853C181.424 112.265 180.546 112.539 179.504 112.539C178.462 112.539 177.501 112.237 176.898 111.798V109.522C177.501 109.083 178.434 108.781 179.504 108.781C180.574 108.781 181.451 109.056 182.055 109.467V109.467Z" fill="#89919B"/>
<path d="M186.467 105.71C186.467 107.932 183.285 109.715 179.363 109.715C175.44 109.715 172.259 107.932 172.259 105.71V81.9297H186.494V105.71H186.467Z" fill="#819396"/>
<path d="M145.456 95.7808V94.6562L148.5 95.2048L151.545 94.6562V95.7808L152.697 96.0003C152.697 96.0003 157.826 112.019 157.826 117.093V138.734H139.12V117.093C139.12 112.019 144.249 96.0003 144.249 96.0003L145.401 95.7808H145.456Z" fill="white"/>
<path d="M148.527 94.5469C151.352 94.5469 153.656 95.836 153.656 97.4269C153.656 99.0178 151.352 100.307 148.527 100.307C145.702 100.307 143.398 99.0178 143.398 97.4269C143.398 95.836 145.702 94.5469 148.527 94.5469Z" fill="#D3DBDD"/>
<path d="M148.663 94.0254C150.94 94.0254 152.805 95.0677 152.805 96.3568C152.805 97.646 150.967 98.6883 148.663 98.6883C146.359 98.6883 144.521 97.646 144.521 96.3568C144.521 95.0677 146.359 94.0254 148.663 94.0254Z" fill="#E4E6EA"/>
<path d="M148.526 121.098C153.682 121.098 157.879 118.739 157.879 115.832V138.735H157.851C157.851 138.735 157.879 138.845 157.879 138.9C157.879 141.807 153.682 144.166 148.526 144.166C143.369 144.166 139.172 141.807 139.172 138.9C139.172 138.845 139.172 138.79 139.2 138.735H139.172V115.832C139.172 118.739 143.369 121.098 148.526 121.098Z" fill="#E4E6EA"/>
<path d="M144.549 92.3535H152.805V96.3581H144.549V92.3535Z" fill="#E4E6EA"/>
<path d="M148.663 90.0215C150.94 90.0215 152.805 91.0638 152.805 92.3529C152.805 93.6421 150.967 94.6844 148.663 94.6844C146.359 94.6844 144.521 93.6421 144.521 92.3529C144.521 91.0638 146.359 90.0215 148.663 90.0215Z" fill="white"/>
<path d="M148.663 90.4609C150.528 90.4609 152.037 91.3112 152.037 92.3535C152.037 93.3958 150.528 94.2461 148.663 94.2461C146.798 94.2461 145.29 93.3958 145.29 92.3535C145.29 91.3112 146.798 90.4609 148.663 90.4609Z" fill="#D3DBDD"/>
<path d="M154.864 124.088C155.33 123.841 155.769 123.594 156.125 123.293C157.195 122.442 157.854 121.4 157.854 120.275V135.855C157.854 138.735 153.739 141.066 148.665 141.121V125.542C150.393 125.542 152.011 125.213 153.383 124.746C153.904 124.554 154.425 124.362 154.864 124.115V124.088Z" fill="#7A92DA"/>
<path d="M151.215 91.1461C150.584 90.7346 149.706 90.4603 148.664 90.4603C147.622 90.4603 146.662 90.7621 146.058 91.2009V90.0215H151.215V91.1461Z" fill="#89919B"/>
<path d="M151.215 91.1467V93.533C150.584 93.9444 149.706 94.2187 148.664 94.2187C147.622 94.2187 146.662 93.917 146.058 93.4781V91.2015C146.662 90.7627 147.594 90.4609 148.664 90.4609C149.734 90.4609 150.611 90.7352 151.215 91.1467V91.1467Z" fill="#89919B"/>
<path d="M155.633 87.3882C155.633 89.61 152.451 91.3928 148.529 91.3928C144.606 91.3928 141.425 89.61 141.425 87.3882V63.6074H155.66V87.3882H155.633Z" fill="#819396"/>
<path d="M275.361 61.084L239.32 81.9299L132.238 20.8459L168.279 0L275.361 61.084Z" fill="#B8BCC1"/>
<path d="M275.361 116.902L239.32 137.693V81.9025L275.361 61.084V116.902Z" fill="#89919B"/>
<path d="M239.318 137.693L132.236 76.6634V20.8457L239.318 81.9297V137.693Z" fill="#9EA4AD"/>
<path d="M235.67 131.111L191.784 106.123V69.0391L235.67 94.0542V131.111Z" fill="#525D60"/>
<path d="M188.713 57.354V104.97L135.748 74.7713L135.501 74.6341V26.9902L188.493 57.2168L188.74 57.354H188.713ZM187.698 57.9574L136.516 28.7731V74.0307L187.698 103.215V57.9574Z" fill="#2C353A"/>
<path d="M233.725 127.573L220.888 120.195V105.246L233.725 112.624V127.573Z" fill="white"/>
<path d="M233.723 83.8502C234.738 84.4262 235.561 86.017 235.561 87.361C235.561 88.7051 234.738 89.3359 233.723 88.7599C232.708 88.1839 231.885 86.593 231.885 85.249C231.885 83.905 232.708 83.2742 233.723 83.8502Z" fill="#DD4545"/>
<path d="M224.043 78.4185C225.058 78.9945 225.881 80.5854 225.881 81.9294C225.881 83.2734 225.058 83.9043 224.043 83.3283C223.028 82.7523 222.205 81.1614 222.205 79.8174C222.205 78.4734 223.028 77.8425 224.043 78.4185Z" fill="#DD4545"/>
<path d="M214.387 73.0142C215.402 73.5902 216.225 75.1811 216.225 76.5251C216.225 77.8691 215.402 78.5 214.387 77.924C213.372 77.348 212.549 75.7571 212.549 74.4131C212.549 73.0691 213.372 72.4382 214.387 73.0142Z" fill="#DD4545"/>
<path d="M204.733 67.6392C205.747 68.2152 206.57 69.8061 206.57 71.1501C206.57 72.4941 205.747 73.125 204.733 72.549C203.718 71.973 202.895 70.3821 202.895 69.0381C202.895 67.6941 203.718 67.0632 204.733 67.6392Z" fill="#DD4545"/>
<path d="M195.053 62.2369C196.068 62.8129 196.891 64.4037 196.891 65.7478C196.891 67.0918 196.068 67.7226 195.053 67.1466C194.038 66.5706 193.215 64.9798 193.215 63.6358C193.215 62.2917 194.038 61.6609 195.053 62.2369Z" fill="#DD4545"/>
<path d="M208.299 81.1065C209.368 81.7374 210.246 83.4105 210.246 84.8643C210.246 86.318 209.368 86.9763 208.299 86.3454C207.229 85.7146 206.351 84.0414 206.351 82.5877C206.351 81.134 207.229 80.4757 208.299 81.1065Z" fill="#2C353A"/>
<path d="M209.121 85.7703L207.64 86.5932L205.747 82.5886L207.256 81.7383L209.121 85.7703Z" fill="#F43838"/>
<path d="M208.134 81.8477C208.93 82.314 209.588 83.5483 209.588 84.618C209.588 85.6877 208.93 86.1814 208.134 85.7151C207.339 85.2489 206.68 84.0146 206.68 82.9448C206.68 81.8751 207.339 81.3814 208.134 81.8477Z" fill="#F43838"/>
<path d="M206.685 82.6719C207.48 83.1382 208.139 84.3725 208.139 85.4422C208.139 86.5119 207.48 87.0057 206.685 86.5394C205.89 86.0731 205.231 84.8388 205.231 83.7691C205.231 82.6993 205.89 82.2056 206.685 82.6719Z" fill="#E52525"/>
<path d="M201.933 77.3487C203.003 77.9796 203.881 79.6527 203.881 81.1065C203.881 82.5602 203.003 83.2185 201.933 82.5876C200.864 81.9568 199.986 80.2836 199.986 78.8299C199.986 77.3761 200.864 76.7178 201.933 77.3487Z" fill="#2C353A"/>
<path d="M202.754 82.0125L201.273 82.8354L199.38 78.8308L200.861 77.9805L202.754 82.0125Z" fill="#F43838"/>
<path d="M201.74 78.0899C202.535 78.5562 203.193 79.7905 203.193 80.8602C203.193 81.9299 202.535 82.4236 201.74 81.9573C200.944 81.4911 200.286 80.2568 200.286 79.187C200.286 78.1173 200.944 77.6236 201.74 78.0899Z" fill="#F43838"/>
<path d="M200.29 78.9121C201.086 79.3784 201.744 80.6127 201.744 81.6824C201.744 82.7522 201.086 83.2459 200.29 82.7796C199.495 82.3133 198.837 81.079 198.837 80.0093C198.837 78.9396 199.495 78.4458 200.29 78.9121Z" fill="#E52525"/>
<path d="M195.515 73.5909C196.585 74.2218 197.463 75.8949 197.463 77.3487C197.463 78.8024 196.585 79.4607 195.515 78.8298C194.446 78.1989 193.568 76.5258 193.568 75.0721C193.568 73.6183 194.446 72.96 195.515 73.5909Z" fill="#2C353A"/>
<path d="M196.338 78.2547L194.857 79.105L192.964 75.073L194.445 74.2227L196.338 78.2547Z" fill="#F43838"/>
<path d="M195.324 74.3321C196.119 74.7983 196.777 76.0327 196.777 77.1024C196.777 78.1721 196.119 78.6658 195.324 78.1995C194.528 77.7332 193.87 76.4989 193.87 75.4292C193.87 74.3595 194.528 73.8658 195.324 74.3321Z" fill="#F43838"/>
<path d="M193.9 75.1543C194.695 75.6206 195.354 76.8549 195.354 77.9246C195.354 78.9944 194.695 79.4881 193.9 79.0218C193.104 78.5555 192.446 77.3212 192.446 76.2515C192.446 75.1818 193.104 74.688 193.9 75.1543Z" fill="#E52525"/>
<path d="M208.299 90.5714C209.368 91.2022 210.246 92.8754 210.246 94.3291C210.246 95.7828 209.368 96.4411 208.299 95.8103C207.229 95.1794 206.351 93.5062 206.351 92.0525C206.351 90.5988 207.229 89.9405 208.299 90.5714Z" fill="#2C353A"/>
<path d="M209.121 95.2352L207.64 96.058L205.747 92.0534L207.256 91.2031L209.121 95.2352Z" fill="#F43838"/>
<path d="M208.134 91.3125C208.93 91.7788 209.588 93.0131 209.588 94.0828C209.588 95.1526 208.93 95.6463 208.134 95.18C207.339 94.7137 206.68 93.4794 206.68 92.4097C206.68 91.34 207.339 90.8462 208.134 91.3125Z" fill="#F43838"/>
<path d="M206.685 92.1348C207.48 92.6011 208.139 93.8354 208.139 94.9051C208.139 95.9748 207.48 96.4685 206.685 96.0023C205.89 95.536 205.231 94.3017 205.231 93.2319C205.231 92.1622 205.89 91.6685 206.685 92.1348Z" fill="#E52525"/>
<path d="M201.933 86.8136C203.003 87.4444 203.881 89.1176 203.881 90.5713C203.881 92.025 203.003 92.6833 201.933 92.0525C200.864 91.4216 199.986 89.7484 199.986 88.2947C199.986 86.841 200.864 86.1827 201.933 86.8136Z" fill="#2C353A"/>
<path d="M202.754 91.4773L201.273 92.3002L199.38 88.2956L200.861 87.4453L202.754 91.4773Z" fill="#F43838"/>
<path d="M201.74 87.5547C202.535 88.021 203.193 89.2553 203.193 90.325C203.193 91.3948 202.535 91.8885 201.74 91.4222C200.944 90.9559 200.286 89.7216 200.286 88.6519C200.286 87.5821 200.944 87.0884 201.74 87.5547Z" fill="#F43838"/>
<path d="M200.29 88.377C201.086 88.8433 201.744 90.0776 201.744 91.1473C201.744 92.217 201.086 92.7107 200.29 92.2445C199.495 91.7782 198.837 90.5439 198.837 89.4741C198.837 88.4044 199.495 87.9107 200.29 88.377Z" fill="#E52525"/>
<path d="M195.515 83.0538C196.585 83.6847 197.463 85.3578 197.463 86.8115C197.463 88.2653 196.585 88.9236 195.515 88.2927C194.446 87.6618 193.568 85.9887 193.568 84.5349C193.568 83.0812 194.446 82.4229 195.515 83.0538Z" fill="#2C353A"/>
<path d="M196.338 87.7176L194.857 88.5405L192.964 84.5358L194.445 83.6855L196.338 87.7176Z" fill="#F43838"/>
<path d="M195.324 83.7949C196.119 84.2612 196.777 85.4955 196.777 86.5653C196.777 87.635 196.119 88.1287 195.324 87.6624C194.528 87.1961 193.87 85.9618 193.87 84.8921C193.87 83.8224 194.528 83.3287 195.324 83.7949Z" fill="#F43838"/>
<path d="M193.9 84.6172C194.695 85.0835 195.354 86.3178 195.354 87.3875C195.354 88.4573 194.695 88.951 193.9 88.4847C193.104 88.0184 192.446 86.7841 192.446 85.7144C192.446 84.6446 193.104 84.1509 193.9 84.6172Z" fill="#E52525"/>
<path d="M233.725 99.0739L220.888 91.5584V89.1172L233.725 96.6601V99.0739Z" fill="#9EA4AD"/>
<path d="M233.725 104.23L220.888 96.7146V94.2734L233.725 101.816V104.23Z" fill="#9EA4AD"/>
<path d="M233.725 109.55L220.888 102.007V99.5938L233.725 107.109V109.55Z" fill="#9EA4AD"/>
<path d="M200.291 108.288L193.982 104.586V102.199L200.291 105.902V108.288Z" fill="#2C353A"/>
<path d="M219.297 101.349L211.562 96.7962V83.7949L219.297 88.3207V101.349Z" fill="white"/>
<path d="M196.748 92.4074C198.778 93.5868 200.424 96.7411 200.424 99.4566C200.424 102.172 198.778 103.406 196.748 102.254C194.719 101.075 193.073 97.9206 193.073 95.2051C193.073 92.4897 194.719 91.2554 196.748 92.4074Z" fill="#2C353A"/>
<path d="M196.309 93.8893C197.735 94.7121 198.859 96.9065 198.859 98.799C198.859 100.692 197.707 101.542 196.309 100.746C194.882 99.9236 193.758 97.7293 193.758 95.8367C193.758 93.9441 194.91 93.0938 196.309 93.8893Z" fill="white"/>
<path d="M209.26 113.39L202.951 109.687V107.301L209.26 111.004V113.39Z" fill="#2C353A"/>
<path d="M205.75 97.4816C207.78 98.661 209.426 101.815 209.426 104.531C209.426 107.246 207.78 108.481 205.75 107.329C203.721 106.149 202.075 102.995 202.075 100.279C202.075 97.5639 203.721 96.3296 205.75 97.4816Z" fill="#2C353A"/>
<path d="M205.31 98.9889C206.737 99.8118 207.861 102.006 207.861 103.899C207.861 105.791 206.709 106.642 205.31 105.846C203.884 105.023 202.76 102.829 202.76 100.936C202.76 99.0437 203.912 98.1935 205.31 98.9889Z" fill="white"/>
<path d="M218.367 118.493L212.059 114.818V112.432L218.367 116.135V118.493Z" fill="#2C353A"/>
<path d="M214.825 102.61C216.854 103.79 218.5 106.944 218.5 109.66C218.5 112.375 216.854 113.609 214.825 112.457C212.795 111.278 211.149 108.124 211.149 105.408C211.149 102.693 212.795 101.458 214.825 102.61Z" fill="#2C353A"/>
<path d="M214.412 104.09C215.838 104.913 216.963 107.108 216.963 109C216.963 110.893 215.811 111.743 214.412 110.948C213.013 110.152 211.861 107.93 211.861 106.038C211.861 104.145 213.013 103.295 214.412 104.09Z" fill="white"/>
<path d="M184.296 78.8318C185.119 79.298 185.805 80.5872 185.805 81.7118C185.805 82.8364 185.119 83.3301 184.296 82.8364C183.473 82.3701 182.787 81.0809 182.787 79.9563C182.787 78.8318 183.446 78.338 184.296 78.8318Z" fill="#2C353A"/>
<path d="M184.189 79.296C184.71 79.5977 185.121 80.3932 185.121 81.0789C185.121 81.7646 184.71 82.0663 184.189 81.7921C183.667 81.4903 183.256 80.6949 183.256 80.0092C183.256 79.3235 183.667 79.0217 184.189 79.296Z" fill="white"/>
<path d="M280.545 350.43L140.85 430.056V355.038L280.545 275.385V350.43Z" fill="#DD4545"/>
<path d="M422.215 411.488L75.9259 611.499V605.108L422.215 405.18V411.488Z" fill="#89919B"/>
<path d="M358.934 378.465L12.6721 578.448V572.058L358.934 372.156V378.465Z" fill="#89919B"/>
<path d="M13.2516 591.041C15.7476 591.041 17.7773 592.166 17.7773 593.592C17.7773 595.018 15.7476 596.143 13.2516 596.143C10.7556 596.143 8.72586 594.991 8.72586 593.592C8.72586 592.193 10.7556 591.041 13.2516 591.041Z" fill="#2C353A"/>
<path d="M8.75332 587.229H17.7773V593.592H8.75332V587.229Z" fill="#2C353A"/>
<path d="M13.2516 584.676C15.7476 584.676 17.7773 585.828 17.7773 587.227C17.7773 588.626 15.7476 589.778 13.2516 589.778C10.7556 589.778 8.72586 588.626 8.72586 587.227C8.72586 585.828 10.7556 584.676 13.2516 584.676Z" fill="#758182"/>
<path d="M13.2535 585.088C14.7072 585.088 15.9141 585.746 15.9141 586.596C15.9141 587.447 14.7346 588.078 13.2535 588.078C11.7723 588.078 10.5929 587.419 10.5929 586.596C10.5929 585.774 11.7723 585.088 13.2535 585.088Z" fill="#89919B"/>
<path d="M10.5929 522.852H15.9141V586.569H10.5929V522.852Z" fill="#89919B"/>
<path d="M13.2535 521.371C14.7072 521.371 15.9141 522.029 15.9141 522.852C15.9141 523.675 14.7346 524.361 13.2535 524.361C11.7723 524.361 10.5929 523.703 10.5929 522.852C10.5929 522.002 11.7723 521.371 13.2535 521.371Z" fill="#89919B"/>
<path d="M74.6871 625.9C77.1831 625.9 79.2129 627.052 79.2129 628.451C79.2129 629.85 77.1831 631.002 74.6871 631.002C72.191 631.002 70.1613 629.85 70.1613 628.451C70.1613 627.052 72.191 625.9 74.6871 625.9Z" fill="#2C353A"/>
<path d="M70.1614 622.061H79.1855V628.424H70.1614V622.061Z" fill="#2C353A"/>
<path d="M74.6871 619.508C77.1831 619.508 79.2129 620.632 79.2129 622.059C79.2129 623.485 77.1831 624.61 74.6871 624.61C72.191 624.61 70.1613 623.458 70.1613 622.059C70.1613 620.66 72.191 619.508 74.6871 619.508Z" fill="#758182"/>
<path d="M74.689 622.937C73.2196 622.937 72.0284 622.262 72.0284 621.428C72.0284 620.595 73.2196 619.92 74.689 619.92C76.1584 619.92 77.3496 620.595 77.3496 621.428C77.3496 622.262 76.1584 622.937 74.689 622.937Z" fill="#89919B"/>
<path d="M72.0284 557.684H77.3496V621.401H72.0284V557.684Z" fill="#89919B"/>
<path d="M74.689 559.165C73.2196 559.165 72.0284 558.502 72.0284 557.684C72.0284 556.866 73.2196 556.203 74.689 556.203C76.1584 556.203 77.3496 556.866 77.3496 557.684C77.3496 558.502 76.1584 559.165 74.689 559.165Z" fill="#89919B"/>
<path d="M138.185 520.328C140.681 520.328 142.711 521.453 142.711 522.879C142.711 524.305 140.681 525.43 138.185 525.43C135.689 525.43 133.659 524.278 133.659 522.879C133.659 521.48 135.689 520.328 138.185 520.328Z" fill="#2C353A"/>
<path d="M133.687 516.488H142.711V522.852H133.687V516.488Z" fill="#2C353A"/>
<path d="M138.185 513.938C140.681 513.938 142.711 515.089 142.711 516.488C142.711 517.887 140.681 519.039 138.185 519.039C135.689 519.039 133.659 517.887 133.659 516.488C133.659 515.089 135.689 513.938 138.185 513.938Z" fill="#758182"/>
<path d="M138.187 514.348C139.641 514.348 140.848 515.006 140.848 515.856C140.848 516.707 139.668 517.337 138.187 517.337C136.706 517.337 135.526 516.679 135.526 515.856C135.526 515.033 136.706 514.348 138.187 514.348Z" fill="#89919B"/>
<path d="M135.526 452.113H140.848V515.83H135.526V452.113Z" fill="#89919B"/>
<path d="M138.187 450.631C139.641 450.631 140.848 451.289 140.848 452.139C140.848 452.99 139.668 453.621 138.187 453.621C136.706 453.621 135.526 452.962 135.526 452.139C135.526 451.317 136.706 450.631 138.187 450.631Z" fill="#89919B"/>
<path d="M199.627 555.162C202.123 555.162 204.152 556.314 204.152 557.713C204.152 559.112 202.123 560.264 199.627 560.264C197.131 560.264 195.101 559.112 195.101 557.713C195.101 556.314 197.131 555.162 199.627 555.162Z" fill="#2C353A"/>
<path d="M195.128 551.322H204.152V557.686H195.128V551.322Z" fill="#2C353A"/>
<path d="M199.627 548.797C202.123 548.797 204.152 549.949 204.152 551.348C204.152 552.747 202.123 553.899 199.627 553.899C197.131 553.899 195.101 552.747 195.101 551.348C195.101 549.949 197.131 548.797 199.627 548.797Z" fill="#758182"/>
<path d="M199.628 549.182C201.082 549.182 202.289 549.84 202.289 550.69C202.289 551.541 201.11 552.199 199.628 552.199C198.147 552.199 196.968 551.541 196.968 550.69C196.968 549.84 198.147 549.182 199.628 549.182Z" fill="#89919B"/>
<path d="M196.968 486.973H202.289V550.69H196.968V486.973Z" fill="#89919B"/>
<path d="M199.628 485.465C201.082 485.465 202.289 486.123 202.289 486.946C202.289 487.769 201.11 488.455 199.628 488.455C198.147 488.455 196.968 487.796 196.968 486.946C196.968 486.096 198.147 485.465 199.628 485.465Z" fill="#89919B"/>
<path d="M260.711 449.779C263.207 449.779 265.236 450.904 265.236 452.33C265.236 453.756 263.207 454.881 260.711 454.881C258.215 454.881 256.185 453.729 256.185 452.33C256.185 450.931 258.215 449.779 260.711 449.779Z" fill="#2C353A"/>
<path d="M256.212 445.969H265.236V452.332H256.212V445.969Z" fill="#2C353A"/>
<path d="M260.711 443.418C263.207 443.418 265.236 444.57 265.236 445.969C265.236 447.368 263.207 448.52 260.711 448.52C258.215 448.52 256.185 447.368 256.185 445.969C256.185 444.57 258.215 443.418 260.711 443.418Z" fill="#758182"/>
<path d="M260.712 443.828C262.166 443.828 263.373 444.486 263.373 445.309C263.373 446.132 262.194 446.818 260.712 446.818C259.231 446.818 258.052 446.16 258.052 445.309C258.052 444.459 259.231 443.828 260.712 443.828Z" fill="#89919B"/>
<path d="M258.052 381.594H263.373V445.311H258.052V381.594Z" fill="#89919B"/>
<path d="M260.712 380.111C262.166 380.111 263.373 380.77 263.373 381.62C263.373 382.47 262.194 383.129 260.712 383.129C259.231 383.129 258.052 382.47 258.052 381.62C258.052 380.77 259.231 380.111 260.712 380.111Z" fill="#89919B"/>
<path d="M322.152 484.643C324.648 484.643 326.678 485.767 326.678 487.193C326.678 488.62 324.648 489.744 322.152 489.744C319.656 489.744 317.626 488.592 317.626 487.193C317.626 485.795 319.656 484.643 322.152 484.643Z" fill="#2C353A"/>
<path d="M317.654 480.803H326.678V487.166H317.654V480.803Z" fill="#2C353A"/>
<path d="M322.152 478.25C324.648 478.25 326.678 479.375 326.678 480.801C326.678 482.227 324.648 483.352 322.152 483.352C319.656 483.352 317.626 482.2 317.626 480.801C317.626 479.402 319.656 478.25 322.152 478.25Z" fill="#758182"/>
<path d="M322.154 478.662C323.608 478.662 324.814 479.32 324.814 480.171C324.814 481.021 323.635 481.652 322.154 481.652C320.673 481.652 319.493 480.994 319.493 480.171C319.493 479.348 320.673 478.662 322.154 478.662Z" fill="#89919B"/>
<path d="M319.493 416.426H324.814V480.143H319.493V416.426Z" fill="#89919B"/>
<path d="M322.154 414.945C323.608 414.945 324.814 415.604 324.814 416.426C324.814 417.249 323.635 417.908 322.154 417.908C320.673 417.908 319.493 417.249 319.493 416.426C319.493 415.604 320.673 414.945 322.154 414.945Z" fill="#89919B"/>
<path d="M360.824 392.617C363.32 392.617 365.35 393.769 365.35 395.168C365.35 396.567 363.32 397.719 360.824 397.719C358.328 397.719 356.298 396.567 356.298 395.168C356.298 393.769 358.328 392.617 360.824 392.617Z" fill="#2C353A"/>
<path d="M356.326 388.779H365.35V395.143H356.326V388.779Z" fill="#2C353A"/>
<path d="M360.824 386.229C363.32 386.229 365.35 387.381 365.35 388.779C365.35 390.178 363.32 391.33 360.824 391.33C358.328 391.33 356.298 390.178 356.298 388.779C356.298 387.381 358.328 386.229 360.824 386.229Z" fill="#758182"/>
<path d="M360.826 386.639C362.279 386.639 363.486 387.297 363.486 388.147C363.486 388.998 362.307 389.628 360.826 389.628C359.345 389.628 358.165 388.97 358.165 388.147C358.165 387.324 359.345 386.639 360.826 386.639Z" fill="#89919B"/>
<path d="M358.165 324.43H363.486V388.147H358.165V324.43Z" fill="#89919B"/>
<path d="M360.826 322.922C362.279 322.922 363.486 323.58 363.486 324.403C363.486 325.226 362.307 325.912 360.826 325.912C359.345 325.912 358.165 325.253 358.165 324.403C358.165 323.553 359.345 322.922 360.826 322.922Z" fill="#89919B"/>
<path d="M422.265 427.453C424.761 427.453 426.791 428.578 426.791 430.004C426.791 431.43 424.761 432.555 422.265 432.555C419.769 432.555 417.739 431.403 417.739 430.004C417.739 428.605 419.769 427.453 422.265 427.453Z" fill="#2C353A"/>
<path d="M417.767 423.641H426.791V430.004H417.767V423.641Z" fill="#2C353A"/>
<path d="M422.265 421.092C424.761 421.092 426.791 422.244 426.791 423.643C426.791 425.042 424.761 426.194 422.265 426.194C419.769 426.194 417.739 425.042 417.739 423.643C417.739 422.244 419.769 421.092 422.265 421.092Z" fill="#758182"/>
<path d="M422.267 421.504C423.721 421.504 424.928 422.162 424.928 423.013C424.928 423.863 423.748 424.521 422.267 424.521C420.786 424.521 419.607 423.863 419.607 423.013C419.607 422.162 420.786 421.504 422.267 421.504Z" fill="#89919B"/>
<path d="M419.607 359.266H424.928V422.983H419.607V359.266Z" fill="#89919B"/>
<path d="M422.267 357.758C423.721 357.758 424.928 358.416 424.928 359.266C424.928 360.117 423.748 360.748 422.267 360.748C420.786 360.748 419.607 360.089 419.607 359.266C419.607 358.443 420.786 357.758 422.267 357.758Z" fill="#89919B"/>
<path d="M369.963 340.31L7.02439 547.947V508.504L371.307 298.18L369.963 340.31Z" fill="#9EA4AD"/>
<path d="M7.02148 547.947L-0.000288714 543.888V504.473L7.02148 508.505V547.947Z" fill="#89919B"/>
<path d="M371.307 298.18L7.02436 508.505L0.00258678 504.473L364.285 294.148L371.307 298.18Z" fill="#B8BCC1"/>
<path d="M16.8682 506.584L17.7185 506.09L36.2055 516.979L61.248 531.708L54.0069 544.49L21.5037 525.4L10.4773 518.927V517.637C10.4773 513.084 12.9185 508.888 16.8682 506.611V506.584Z" fill="#E4E6EA"/>
<path d="M418.674 326.267L61.2487 531.709L17.7191 506.118L375.144 300.676L418.674 326.267Z" fill="#B8BCC1"/>
<path d="M54.0078 557.271L10.4783 531.68V518.898L54.0078 544.49V557.271Z" fill="#89919B"/>
<path d="M60.3984 532.146L418.674 326.266V347.715L53.9801 557.244V543.145C53.9801 538.592 56.4212 534.396 60.371 532.119L60.3984 532.146Z" fill="#9EA4AD"/>
<path d="M69.9414 526.661L66.1562 528.828L22.2426 503.483L26.0278 501.289L69.9414 526.661Z" fill="#525D60"/>
<path d="M90.459 514.95L86.6739 517.144L42.7603 491.772L46.5455 489.605L90.459 514.95Z" fill="#525D60"/>
<path d="M110.98 503.237L107.195 505.431L63.2818 480.087L67.0669 477.893L110.98 503.237Z" fill="#525D60"/>
<path d="M131.303 491.442L127.518 493.609L83.5766 468.265L87.3891 466.07L131.303 491.442Z" fill="#525D60"/>
<path d="M151.736 479.702L147.951 481.869L104.01 456.497L107.823 454.33L151.736 479.702Z" fill="#525D60"/>
<path d="M172.254 467.991L168.469 470.158L124.528 444.813L128.313 442.619L172.254 467.991Z" fill="#525D60"/>
<path d="M192.746 456.278L188.961 458.472L145.047 433.1L148.833 430.934L192.746 456.278Z" fill="#525D60"/>
<path d="M213.094 444.485L209.281 446.652L165.368 421.28L169.153 419.113L213.094 444.485Z" fill="#525D60"/>
<path d="M233.529 432.717L229.717 434.912L185.803 409.54L189.588 407.373L233.529 432.717Z" fill="#525D60"/>
<path d="M254.018 421.007L250.232 423.201L206.209 397.774L209.994 395.607L254.018 421.007Z" fill="#2C353A"/>
<path d="M274.539 409.321L270.754 411.488L226.648 386.034L230.433 383.867L274.539 409.321Z" fill="#2C353A"/>
<path d="M294.863 397.5L291.078 399.695L247.137 374.323L250.95 372.156L294.863 397.5Z" fill="#2C353A"/>
<path d="M315.295 385.76L311.51 387.927L267.596 362.583L271.381 360.389L315.295 385.76Z" fill="#2C353A"/>
<path d="M335.812 374.047L332.027 376.242L288.114 350.87L291.899 348.703L335.812 374.047Z" fill="#2C353A"/>
<path d="M356.33 362.364L352.545 364.531L308.604 339.187L312.389 336.992L356.33 362.364Z" fill="#495656"/>
<path d="M376.652 350.542L372.84 352.708L328.926 327.364L332.711 325.17L376.652 350.542Z" fill="#525D60"/>
<path d="M397.088 338.801L393.303 340.968L349.362 315.624L353.147 313.43L397.088 338.801Z" fill="#525D60"/>
<path d="M419.031 326.047L415.246 328.214L371.305 302.87L375.118 300.676L419.031 326.047Z" fill="#525D60"/>
<path d="M430.303 374.131L66.0205 581.63V542.215L430.303 331.891V374.131Z" fill="#9EA4AD"/>
<path d="M66.0176 581.629L58.9957 577.597V538.154L66.0176 542.214V581.629Z" fill="#89919B"/>
<path d="M430.303 331.889L66.0205 542.214L58.9987 538.154L423.281 327.857L430.303 331.889Z" fill="#B8BCC1"/>
<path d="M183.475 393.33V392.205L186.52 392.754L189.564 392.205V393.33L190.717 393.549C190.717 393.549 195.846 409.568 195.846 414.642V436.283H177.139V414.642C177.139 409.568 182.268 393.549 182.268 393.549L183.42 393.33H183.475Z" fill="white"/>
<path d="M186.513 392.096C189.339 392.096 191.643 393.385 191.643 394.976C191.643 396.567 189.339 397.856 186.513 397.856C183.688 397.856 181.384 396.567 181.384 394.976C181.384 393.385 183.688 392.096 186.513 392.096Z" fill="#D3DBDD"/>
<path d="M182.758 390.561C183.8 390.04 185.144 389.71 186.625 389.71C188.106 389.71 189.478 390.04 190.493 390.561C190.822 390.04 191.343 389.683 192.056 389.71C192.056 389.71 193.565 392.152 192.056 394.154C191.946 394.318 191.809 394.456 191.645 394.62C191.59 394.675 191.59 394.703 191.535 394.757C190.493 395.663 188.71 396.239 186.68 396.239C184.65 396.239 182.84 395.635 181.798 394.73C181.77 394.703 181.743 394.675 181.715 394.648C181.551 394.483 181.386 394.318 181.277 394.154C179.768 392.152 181.277 389.71 181.277 389.71C181.99 389.71 182.511 390.04 182.84 390.561H182.758Z" fill="#7A92DA"/>
<path d="M186.626 394.126C183.415 394.126 180.812 392.664 180.812 390.862C180.812 389.059 183.415 387.598 186.626 387.598C189.838 387.598 192.441 389.059 192.441 390.862C192.441 392.664 189.838 394.126 186.626 394.126Z" fill="#8FA9EA"/>
<path d="M177.19 436.282V413.379C177.19 416.286 181.387 418.645 186.543 418.645C191.7 418.645 195.896 416.286 195.896 413.379V436.282H195.869C195.869 436.282 195.896 436.392 195.896 436.447C195.896 439.354 191.7 441.713 186.543 441.713C181.387 441.713 177.19 439.354 177.19 436.447C177.19 436.392 177.19 436.337 177.217 436.282H177.19Z" fill="#E4E6EA"/>
<path d="M178.914 420.814C179.271 421.116 179.71 421.363 180.176 421.61C180.642 421.856 181.136 422.048 181.657 422.24C183.029 422.734 184.62 423.036 186.375 423.036V438.615C181.273 438.561 177.186 436.229 177.186 433.349V417.77C177.186 418.894 177.845 419.936 178.914 420.787V420.814Z" fill="#7A92DA"/>
<path d="M372.161 283.67V282.545L375.205 283.094L378.25 282.545V283.67L379.402 283.889C379.402 283.889 384.531 299.907 384.531 304.982V326.623H365.825V304.982C365.825 299.907 370.954 283.889 370.954 283.889L372.106 283.67H372.161Z" fill="white"/>
<path d="M375.207 282.436C378.032 282.436 380.336 283.725 380.336 285.316C380.336 286.906 378.032 288.196 375.207 288.196C372.382 288.196 370.077 286.906 370.077 285.316C370.077 283.725 372.382 282.436 375.207 282.436Z" fill="#D3DBDD"/>
<path d="M375.071 286.577C372.784 286.577 370.929 285.533 370.929 284.246C370.929 282.958 372.784 281.914 375.071 281.914C377.359 281.914 379.213 282.958 379.213 284.246C379.213 285.533 377.359 286.577 375.071 286.577Z" fill="#E4E6EA"/>
<path d="M365.852 326.624V303.721C365.852 306.628 370.049 308.987 375.205 308.987C380.362 308.987 384.559 306.628 384.559 303.721V326.624H384.531C384.531 326.624 384.559 326.733 384.559 326.788C384.559 329.696 380.362 332.055 375.205 332.055C370.049 332.055 365.852 329.696 365.852 326.788C365.852 326.733 365.852 326.679 365.88 326.624H365.852Z" fill="#E4E6EA"/>
<path d="M370.924 280.242H379.18V284.247H370.924V280.242Z" fill="#E4E6EA"/>
<path d="M375.071 282.573C372.784 282.573 370.929 281.529 370.929 280.242C370.929 278.954 372.784 277.91 375.071 277.91C377.359 277.91 379.213 278.954 379.213 280.242C379.213 281.529 377.359 282.573 375.071 282.573Z" fill="white"/>
<path d="M375.066 282.133C373.202 282.133 371.692 281.286 371.692 280.24C371.692 279.195 373.202 278.348 375.066 278.348C376.929 278.348 378.439 279.195 378.439 280.24C378.439 281.286 376.929 282.133 375.066 282.133Z" fill="#D3DBDD"/>
<path d="M367.576 311.154C367.933 311.456 368.372 311.703 368.838 311.949C369.305 312.196 369.798 312.388 370.319 312.58C371.691 313.074 373.282 313.376 375.037 313.376V328.955C369.935 328.9 365.849 326.569 365.849 323.689V308.109C365.849 309.234 366.507 310.276 367.576 311.127V311.154Z" fill="#7A92DA"/>
<path d="M339.626 302.074V300.949L342.67 301.498L345.715 300.949V302.074L346.867 302.293C346.867 302.293 351.996 318.312 351.996 323.386V345.027H333.29V323.386C333.29 318.312 338.419 302.293 338.419 302.293L339.571 302.074H339.626Z" fill="white"/>
<path d="M342.664 300.84C345.489 300.84 347.793 302.129 347.793 303.72C347.793 305.311 345.489 306.6 342.664 306.6C339.839 306.6 337.535 305.311 337.535 303.72C337.535 302.129 339.839 300.84 342.664 300.84Z" fill="#D3DBDD"/>
<path d="M342.526 304.956C340.239 304.956 338.384 303.912 338.384 302.624C338.384 301.337 340.239 300.293 342.526 300.293C344.814 300.293 346.668 301.337 346.668 302.624C346.668 303.912 344.814 304.956 342.526 304.956Z" fill="#E4E6EA"/>
<path d="M333.34 345.028V322.125C333.34 325.032 337.537 327.391 342.694 327.391C347.85 327.391 352.047 325.032 352.047 322.125V345.028H352.019C352.019 345.028 352.047 345.138 352.047 345.193C352.047 348.1 347.85 350.459 342.694 350.459C337.537 350.459 333.34 348.1 333.34 345.193C333.34 345.138 333.34 345.083 333.368 345.028H333.34Z" fill="#E4E6EA"/>
<path d="M338.412 298.619H346.668V302.624H338.412V298.619Z" fill="#E4E6EA"/>
<path d="M342.526 296.287C344.803 296.287 346.668 297.329 346.668 298.619C346.668 299.908 344.83 300.95 342.526 300.95C340.222 300.95 338.384 299.908 338.384 298.619C338.384 297.329 340.222 296.287 342.526 296.287Z" fill="white"/>
<path d="M342.531 296.727C344.396 296.727 345.904 297.577 345.904 298.619C345.904 299.661 344.396 300.512 342.531 300.512C340.665 300.512 339.157 299.661 339.157 298.619C339.157 297.577 340.665 296.727 342.531 296.727Z" fill="#D3DBDD"/>
<path d="M335.067 329.558C335.423 329.86 335.862 330.107 336.328 330.354C336.795 330.601 337.288 330.793 337.81 330.985C339.181 331.478 340.772 331.78 342.527 331.78V347.36C337.426 347.305 333.339 344.973 333.339 342.093V326.514C333.339 327.638 333.997 328.681 335.067 329.531V329.558Z" fill="#7A92DA"/>
<path d="M355.312 319.19L215.59 398.87L131.301 349.691L270.996 270.01L355.312 319.19Z" fill="#F99595"/>
<path d="M215.594 473.889L206.268 468.431L206.213 404.988L140.85 367.986V423.201L134.788 426.821L131.305 424.764V349.691L215.594 398.871V473.889Z" fill="#F77272"/>
<path d="M355.312 394.262L215.59 473.888V398.87L355.312 319.189V394.262Z" fill="#E85B5B"/>
<path d="M353.527 322.426V392.671L353.171 392.89L218.331 469.938V399.72L218.687 399.501L353.527 322.426V322.426ZM219.784 467.415L352.074 391.848V324.977L219.784 400.598V467.442V467.415Z" fill="#DD4545"/>
<path d="M349.688 389.133L301.687 416.206V355.643L349.688 328.543V389.133Z" fill="#B8BCC1"/>
<path d="M297.572 421.334L222.362 463.931V401.667L297.572 359.043V421.306V421.334ZM296.091 361.594L223.816 402.545V461.435L296.091 420.484V361.594Z" fill="#DD4545"/>
<path d="M346.619 387.652L304.214 411.79V370.262L346.619 346.125V387.652Z" fill="#9EA4AD"/>
<path d="M319.076 374.623L305.526 382.358V371.633L319.076 363.898V374.623Z" fill="white"/>
<path d="M319.076 401.338L305.526 409.046V384.415L319.076 376.68V401.338Z" fill="#2C353A"/>
<path d="M345.029 372.402L321.029 385.513V362.884L345.029 349.746V372.375V372.402ZM344.289 351.008L321.77 363.323V384.279L344.289 371.963V351.008Z" fill="#2C353A"/>
<path d="M306.823 354.957C308.689 353.887 310.197 355.012 310.197 357.508C310.197 360.004 308.689 362.856 306.823 363.926C304.958 364.996 303.45 363.871 303.45 361.375C303.45 358.879 304.958 356.026 306.823 354.957Z" fill="#2C353A"/>
<path d="M307.12 356.245C307.696 355.916 308.217 355.889 308.629 356.081L311.18 357.507L307.943 364.392L305.392 362.965C304.926 362.636 304.624 361.951 304.624 361.018C304.624 359.18 305.749 357.068 307.12 356.273V356.245Z" fill="#5C77BC"/>
<path d="M309.617 357.644C310.989 356.849 312.113 357.699 312.113 359.537C312.113 361.374 310.989 363.486 309.617 364.282C308.246 365.077 307.121 364.227 307.121 362.389C307.121 360.552 308.246 358.44 309.617 357.644Z" fill="#7A92DA"/>
<path d="M318.667 348.703C320.532 347.633 322.041 348.758 322.041 351.254C322.041 353.75 320.532 356.602 318.667 357.672C316.802 358.742 315.293 357.617 315.293 355.121C315.293 352.625 316.802 349.772 318.667 348.703Z" fill="#2C353A"/>
<path d="M318.966 349.991C319.542 349.662 320.063 349.635 320.475 349.827L323.025 351.253L319.789 358.165L317.238 356.739C316.772 356.41 316.47 355.724 316.47 354.791C316.47 352.954 317.594 350.842 318.966 350.046V349.991Z" fill="#5C77BC"/>
<path d="M321.463 351.39C322.834 350.595 323.959 351.445 323.959 353.283C323.959 355.121 322.834 357.233 321.463 358.028C320.092 358.823 318.967 357.973 318.967 356.135C318.967 354.298 320.092 352.186 321.463 351.39Z" fill="#7A92DA"/>
<path d="M330.732 341.49C332.597 340.42 334.105 341.545 334.105 344.041C334.105 346.537 332.597 349.389 330.732 350.459C328.867 351.529 327.358 350.404 327.358 347.908C327.358 345.412 328.867 342.56 330.732 341.49Z" fill="#2C353A"/>
<path d="M331.06 342.753C331.636 342.424 332.157 342.397 332.568 342.589L335.119 344.015L331.883 350.927L329.332 349.501C328.865 349.171 328.564 348.486 328.564 347.553C328.564 345.715 329.688 343.603 331.06 342.808V342.753Z" fill="#5C77BC"/>
<path d="M333.557 344.152C334.928 343.356 336.053 344.207 336.053 346.044C336.053 347.882 334.928 349.994 333.557 350.79C332.185 351.585 331.061 350.735 331.061 348.897C331.061 347.059 332.185 344.947 333.557 344.152Z" fill="#7A92DA"/>
<path d="M342.64 335.209C344.505 334.139 346.014 335.263 346.014 337.759C346.014 340.256 344.505 343.108 342.64 344.178C340.775 345.248 339.266 344.123 339.266 341.627C339.266 339.131 340.775 336.278 342.64 335.209Z" fill="#2C353A"/>
<path d="M342.941 336.499C343.517 336.17 344.038 336.143 344.449 336.335L347 337.761L343.763 344.673L341.213 343.247C340.746 342.918 340.445 342.232 340.445 341.299C340.445 339.462 341.569 337.35 342.941 336.554V336.499Z" fill="#5C77BC"/>
<path d="M345.438 337.898C346.809 337.103 347.934 337.953 347.934 339.791C347.934 341.628 346.809 343.74 345.438 344.536C344.066 345.331 342.942 344.481 342.942 342.643C342.942 340.805 344.066 338.693 345.438 337.898Z" fill="#7A92DA"/>
<path d="M327.033 396.621L321.739 399.721V397.719L327.033 394.619V396.621Z" fill="#2C353A"/>
<path d="M328.045 363.35L322.751 366.449V364.447L328.045 361.348V363.35Z" fill="white"/>
<path d="M328.045 368.452L322.751 371.551V369.549L328.045 366.449V368.452Z" fill="white"/>
<path d="M328.045 373.774L322.751 376.873V374.871L328.045 371.771V373.774Z" fill="white"/>
<path d="M328.045 378.875L322.751 381.975V379.972L328.045 376.873V378.875Z" fill="white"/>
<path d="M343.104 355.588L337.81 358.688V356.685L343.104 353.586V355.588Z" fill="white"/>
<path d="M343.104 360.69L337.81 363.789V361.814L343.104 358.688V360.69Z" fill="white"/>
<path d="M343.104 366.01L337.81 369.11V367.107L343.104 364.008V366.01Z" fill="white"/>
<path d="M343.104 371.112L337.81 374.211V372.209L343.104 369.109V371.112Z" fill="white"/>
<path d="M324.699 386.39C326.4 385.403 327.799 386.445 327.799 388.722C327.799 390.998 326.427 393.631 324.699 394.619C322.971 395.606 321.6 394.564 321.6 392.287C321.6 390.011 322.971 387.378 324.699 386.39Z" fill="#2C353A"/>
<path d="M325.054 387.651C326.233 386.965 327.193 387.706 327.193 389.269C327.193 390.833 326.233 392.698 325.054 393.383C323.874 394.069 322.914 393.329 322.914 391.765C322.914 390.202 323.874 388.337 325.054 387.651Z" fill="white"/>
<path d="M335.895 391.135L330.601 394.235V392.232L335.895 389.133V391.135Z" fill="#2C353A"/>
<path d="M333.559 380.904C335.259 379.916 336.658 380.959 336.658 383.235C336.658 385.512 335.287 388.145 333.559 389.133C331.858 390.12 330.459 389.078 330.459 386.801C330.459 384.524 331.831 381.891 333.559 380.904Z" fill="#2C353A"/>
<path d="M333.913 382.167C335.093 381.481 336.053 382.221 336.053 383.785C336.053 385.348 335.093 387.213 333.913 387.899C332.734 388.585 331.774 387.844 331.774 386.281C331.774 384.717 332.734 382.852 333.913 382.167Z" fill="white"/>
<path d="M345.029 386.116L339.736 389.215V387.213L345.029 384.113V386.116Z" fill="#2C353A"/>
<path d="M342.668 375.886C344.369 374.899 345.768 375.941 345.768 378.218C345.768 380.494 344.396 383.128 342.668 384.115C340.968 385.102 339.569 384.06 339.569 381.783C339.569 379.507 340.94 376.874 342.668 375.886Z" fill="#2C353A"/>
<path d="M343.052 377.12C344.231 376.434 345.191 377.174 345.191 378.738C345.191 380.301 344.231 382.167 343.052 382.852C341.873 383.538 340.912 382.797 340.912 381.234C340.912 379.671 341.873 377.805 343.052 377.12Z" fill="white"/>
<path d="M55.739 466.293V465.168L58.7836 465.717L61.8281 465.168V466.293L62.9802 466.512C62.9802 466.512 68.1094 482.53 68.1094 487.605V509.246H49.4029V487.605C49.4029 482.53 54.5322 466.512 54.5322 466.512L55.6841 466.293H55.739Z" fill="white"/>
<path d="M58.8083 465.057C61.6335 465.057 63.9375 466.346 63.9375 467.937C63.9375 469.528 61.6335 470.817 58.8083 470.817C55.9832 470.817 53.6791 469.528 53.6791 467.937C53.6791 466.346 55.9832 465.057 58.8083 465.057Z" fill="#D3DBDD"/>
<path d="M55.0195 463.522C56.0618 463.001 57.4058 462.671 58.8869 462.671C60.3681 462.671 61.7396 463.001 62.7544 463.522C63.0836 463.001 63.6046 462.644 64.3178 462.671C64.3178 462.671 65.8264 465.113 64.3178 467.115C64.2081 467.279 64.071 467.417 63.9064 467.581C63.8515 467.636 63.8515 467.663 63.7966 467.718C62.7543 468.623 60.9715 469.199 58.9418 469.199C56.912 469.199 55.1017 468.596 54.0594 467.691C54.032 467.663 54.0046 467.636 53.9772 467.609C53.8126 467.444 53.648 467.279 53.5383 467.115C52.0297 465.113 53.5383 462.671 53.5383 462.671C54.2514 462.671 54.7726 463.001 55.1018 463.522H55.0195Z" fill="#7A92DA"/>
<path d="M58.8882 460.559C62.0974 460.559 64.7031 462.012 64.7031 463.823C64.7031 465.633 62.0974 467.087 58.8882 467.087C55.6791 467.087 53.0733 465.633 53.0733 463.823C53.0733 462.012 55.6791 460.559 58.8882 460.559Z" fill="#8FA9EA"/>
<path d="M49.4537 509.245V486.342C49.4537 489.249 53.6503 491.608 58.8069 491.608C63.9635 491.608 68.1602 489.249 68.1602 486.342V509.245H68.1327C68.1327 509.245 68.1602 509.355 68.1602 509.409C68.1602 512.317 63.9635 514.676 58.8069 514.676C53.6503 514.676 49.4537 512.317 49.4537 509.409C49.4537 509.355 49.4536 509.3 49.481 509.245H49.4537Z" fill="#E4E6EA"/>
<path d="M51.18 493.775C51.5366 494.077 51.9754 494.324 52.4417 494.57C52.908 494.817 53.4017 495.009 53.9229 495.201C55.2943 495.695 56.8852 495.997 58.6406 495.997V511.576C53.5389 511.522 49.452 509.19 49.452 506.31V490.73C49.452 491.855 50.1103 492.897 51.18 493.748V493.775Z" fill="#7A92DA"/>
<path d="M86.7839 447.886V446.762L89.8285 447.31L92.8731 446.762V447.886L94.0251 448.106C94.0251 448.106 99.1543 464.124 99.1543 469.198V490.84H80.4478V469.198C80.4478 464.124 85.577 448.106 85.577 448.106L86.729 447.886H86.7839Z" fill="white"/>
<path d="M89.8298 446.65C92.655 446.65 94.959 447.94 94.959 449.53C94.959 451.121 92.655 452.41 89.8298 452.41C87.0046 452.41 84.7006 451.121 84.7006 449.53C84.7006 447.94 87.0046 446.65 89.8298 446.65Z" fill="#D3DBDD"/>
<path d="M86.0703 445.143C87.1125 444.622 88.4565 444.292 89.9376 444.292C91.4188 444.292 92.7902 444.622 93.8051 445.143C94.1343 444.622 94.6554 444.265 95.3686 444.292C95.3686 444.292 96.8772 446.734 95.3686 448.736C95.2589 448.901 95.1217 449.038 94.9572 449.202C94.9023 449.257 94.9023 449.285 94.8474 449.339C94.8474 449.339 94.8475 449.339 94.8201 449.339C93.7778 450.245 91.9948 450.821 89.9651 450.821C87.9354 450.821 86.1251 450.217 85.0828 449.312C85.0553 449.285 85.0279 449.257 85.0005 449.23C84.8359 449.065 84.6713 448.901 84.5616 448.736C83.053 446.734 84.5616 444.292 84.5616 444.292C85.2748 444.292 85.7959 444.622 86.1251 445.143H86.0703Z" fill="#7A92DA"/>
<path d="M89.9389 448.708C86.7274 448.708 84.124 447.246 84.124 445.444C84.124 443.641 86.7274 442.18 89.9389 442.18C93.1504 442.18 95.7539 443.641 95.7539 445.444C95.7539 447.246 93.1504 448.708 89.9389 448.708Z" fill="#8FA9EA"/>
<path d="M80.4752 490.839V467.936C80.4752 470.843 84.6718 473.202 89.8284 473.202C94.985 473.202 99.1816 470.843 99.1816 467.936V490.839H99.1542C99.1542 490.839 99.1816 490.948 99.1816 491.003C99.1816 493.911 94.985 496.27 89.8284 496.27C84.6718 496.27 80.4752 493.911 80.4752 491.003C80.4752 490.948 80.4752 490.893 80.5026 490.839H80.4752Z" fill="#E4E6EA"/>
<path d="M82.2015 475.396C82.558 475.698 82.9969 475.945 83.4632 476.192C83.9295 476.438 84.4232 476.63 84.9443 476.822C86.3158 477.316 87.9067 477.618 89.6621 477.618V493.197C84.5603 493.143 80.4734 490.811 80.4734 487.931V472.352C80.4734 473.476 81.1317 474.518 82.2015 475.369V475.396Z" fill="#7A92DA"/>
<path d="M119.071 429.48V428.355L122.116 428.904L125.16 428.355V429.48L126.312 429.699C126.312 429.699 131.441 445.718 131.441 450.792V472.434H112.735V450.792C112.735 445.718 117.864 429.699 117.864 429.699L119.016 429.48H119.071Z" fill="white"/>
<path d="M122.117 428.246C124.942 428.246 127.246 429.535 127.246 431.126C127.246 432.717 124.942 434.006 122.117 434.006C119.292 434.006 116.988 432.717 116.988 431.126C116.988 429.535 119.292 428.246 122.117 428.246Z" fill="#D3DBDD"/>
<path d="M118.326 426.738C119.368 426.217 120.712 425.888 122.194 425.888C123.675 425.888 125.046 426.217 126.061 426.738C126.39 426.217 126.911 425.861 127.624 425.888C127.624 425.888 129.133 428.329 127.624 430.332C127.515 430.496 127.378 430.633 127.213 430.798C127.158 430.853 127.158 430.88 127.103 430.935C126.061 431.84 124.278 432.416 122.248 432.416C120.219 432.416 118.408 431.813 117.366 430.908C117.339 430.88 117.311 430.853 117.284 430.825C117.119 430.661 116.955 430.496 116.845 430.332C115.336 428.329 116.845 425.888 116.845 425.888C117.558 425.888 118.079 426.217 118.408 426.738H118.326Z" fill="#7A92DA"/>
<path d="M122.222 430.303C119.011 430.303 116.407 428.842 116.407 427.039C116.407 425.237 119.011 423.775 122.222 423.775C125.434 423.775 128.037 425.237 128.037 427.039C128.037 428.842 125.434 430.303 122.222 430.303Z" fill="#8FA9EA"/>
<path d="M112.762 472.434V449.531C112.762 452.439 116.959 454.798 122.116 454.798C127.272 454.798 131.469 452.439 131.469 449.531V472.434H131.441C131.441 472.434 131.469 472.544 131.469 472.599C131.469 475.506 127.272 477.865 122.116 477.865C116.959 477.865 112.762 475.506 112.762 472.599C112.762 472.544 112.762 472.489 112.79 472.434H112.762Z" fill="#E4E6EA"/>
<path d="M114.487 456.992C114.843 457.294 115.282 457.54 115.748 457.787C116.215 458.034 116.708 458.226 117.23 458.418C118.601 458.912 120.192 459.214 121.947 459.214V474.793C116.846 474.738 112.759 472.407 112.759 469.527V453.947C112.759 455.072 113.417 456.114 114.487 456.964V456.992Z" fill="#7A92DA"/>
<path d="M151.27 411.24V410.115L154.315 410.664L157.359 410.115V411.24L158.511 411.459C158.511 411.459 163.641 427.478 163.641 432.552V454.193H144.934V432.552C144.934 427.478 150.063 411.459 150.063 411.459L151.215 411.24H151.27Z" fill="white"/>
<path d="M154.316 410.006C157.141 410.006 159.445 411.295 159.445 412.886C159.445 414.477 157.141 415.766 154.316 415.766C151.491 415.766 149.187 414.477 149.187 412.886C149.187 411.295 151.491 410.006 154.316 410.006Z" fill="#D3DBDD"/>
<path d="M150.555 408.498C151.597 407.977 152.941 407.648 154.422 407.648C155.903 407.648 157.275 407.977 158.289 408.498C158.619 407.977 159.14 407.621 159.853 407.648C159.853 407.648 161.362 410.089 159.853 412.091C159.743 412.256 159.606 412.393 159.442 412.558C159.387 412.613 159.387 412.64 159.332 412.695C158.29 413.6 156.507 414.176 154.477 414.176C152.447 414.176 150.637 413.573 149.595 412.667C149.567 412.64 149.54 412.613 149.512 412.585C149.348 412.421 149.183 412.256 149.073 412.091C147.565 410.089 149.073 407.648 149.073 407.648C149.787 407.648 150.308 407.977 150.637 408.498H150.555Z" fill="#7A92DA"/>
<path d="M154.423 405.535C157.633 405.535 160.238 406.989 160.238 408.799C160.238 410.609 157.633 412.063 154.423 412.063C151.214 412.063 148.608 410.609 148.608 408.799C148.608 406.989 151.214 405.535 154.423 405.535Z" fill="#8FA9EA"/>
<path d="M144.962 454.194V431.291C144.962 434.198 149.158 436.557 154.315 436.557C159.471 436.557 163.668 434.198 163.668 431.291V454.194H163.641C163.641 454.194 163.668 454.304 163.668 454.359C163.668 457.266 159.471 459.625 154.315 459.625C149.158 459.625 144.962 457.266 144.962 454.359C144.962 454.304 144.962 454.249 144.989 454.194H144.962Z" fill="#E4E6EA"/>
<path d="M146.684 438.752C147.04 439.053 147.479 439.3 147.946 439.547C148.412 439.794 148.906 439.986 149.427 440.178C150.798 440.672 152.389 440.973 154.145 440.973V456.553C149.043 456.498 144.956 454.167 144.956 451.287V435.707C144.956 436.832 145.614 437.874 146.684 438.724V438.752Z" fill="#7A92DA"/>
<path d="M151.27 411.57V410.445L154.315 410.994L157.359 410.445V411.57L158.511 411.789C158.511 411.789 163.641 427.808 163.641 432.882V454.523H144.934V432.882C144.934 427.808 150.063 411.789 150.063 411.789L151.215 411.57H151.27Z" fill="white"/>
<path d="M154.316 410.334C157.141 410.334 159.445 411.623 159.445 413.214C159.445 414.805 157.141 416.094 154.316 416.094C151.491 416.094 149.187 414.805 149.187 413.214C149.187 411.623 151.491 410.334 154.316 410.334Z" fill="#D3DBDD"/>
<path d="M150.555 408.799C151.597 408.278 152.941 407.949 154.422 407.949C155.903 407.949 157.275 408.278 158.289 408.799C158.619 408.278 159.14 407.921 159.853 407.949C159.853 407.949 161.362 410.39 159.853 412.392C159.743 412.557 159.606 412.694 159.442 412.859C159.387 412.913 159.387 412.941 159.332 412.996C158.29 413.901 156.507 414.477 154.477 414.477C152.447 414.477 150.637 413.873 149.595 412.968C149.567 412.941 149.54 412.913 149.512 412.886C149.348 412.721 149.183 412.557 149.073 412.392C147.565 410.39 149.073 407.949 149.073 407.949C149.787 407.949 150.308 408.278 150.637 408.799H150.555Z" fill="#7A92DA"/>
<path d="M154.423 405.836C157.633 405.836 160.238 407.29 160.238 409.1C160.238 410.91 157.633 412.364 154.423 412.364C151.214 412.364 148.608 410.91 148.608 409.1C148.608 407.29 151.214 405.836 154.423 405.836Z" fill="#8FA9EA"/>
<path d="M144.962 454.52V431.617C144.962 434.525 149.158 436.884 154.315 436.884C159.471 436.884 163.668 434.525 163.668 431.617V454.52H163.641C163.641 454.52 163.668 454.63 163.668 454.685C163.668 457.592 159.471 459.951 154.315 459.951C149.158 459.951 144.962 457.592 144.962 454.685C144.962 454.63 144.962 454.575 144.989 454.52H144.962Z" fill="#E4E6EA"/>
<path d="M146.684 439.052C147.04 439.354 147.479 439.601 147.946 439.848C148.412 440.095 148.906 440.287 149.427 440.479C150.798 440.972 152.389 441.274 154.145 441.274V456.854C149.043 456.799 144.956 454.467 144.956 451.587V436.008C144.956 437.132 145.614 438.175 146.684 439.025V439.052Z" fill="#7A92DA"/>
<path d="M259.234 468.512L239.65 479.62L228.596 445.005L248.208 433.896L259.234 468.512Z" fill="#2C353A"/>
<path d="M259.973 468.156L240.361 479.265L229.335 444.65L248.946 433.541L259.973 468.156Z" fill="#758182"/>
<path d="M257.697 464.865L241.021 474.328L231.613 444.869L248.289 435.406L257.697 464.865Z" fill="white"/>
<path d="M255.586 454.552C255.586 454.552 254.653 451.617 254.352 450.712C257.451 450.136 261.291 453.071 261.291 453.071L258.932 457.13C258.932 457.13 258.027 457.404 257.232 457.651C256.436 457.898 254.598 457.651 253.611 457.651C252.624 457.651 251.965 456.965 252.761 456.307C253.556 455.621 255.558 454.524 255.558 454.524L255.586 454.552Z" fill="#FFC4B2"/>
<path d="M233.863 461.545L235.756 466.729C235.756 466.729 237.457 465.934 239.432 465.769C240.556 465.687 240.748 466.18 240.446 466.729C240.227 467.14 239.761 467.552 239.24 467.771C238.801 467.963 237.868 469.253 236.826 470.514C235.674 471.886 235.509 473.449 235.509 473.449C235.509 473.449 236.606 478.277 234.275 476.137C231.45 473.531 229.447 468.1 230.791 465.495C232.135 462.889 233.863 461.518 233.863 461.518V461.545Z" fill="#FFC4B2"/>
<path d="M295.193 441.384C298.567 447.418 296.016 456.717 293.794 459.871C291.6 463.026 282.685 453.508 282.685 453.508L285.538 437.325C285.538 437.325 291.792 435.35 295.193 441.384Z" fill="#5C77BC"/>
<path d="M275.17 596.495C278.269 597.51 279.833 598.223 279.833 598.223C279.833 598.223 279.503 564.019 278.187 556.531C277.748 554.063 289.515 553.98 289.515 553.98C289.926 555.708 290.31 587.032 289.515 596.276C289.241 599.375 289.405 601.405 289.652 602.886C288.857 603.243 287.184 603.956 285.949 604.504C284.276 605.272 281.506 605.272 278.132 603.599C274.758 601.926 271.577 599.869 272.591 597.921C273.058 597.044 274.127 596.66 275.17 596.495V596.495Z" fill="#FFC4B2"/>
<path d="M273.632 596.003C274.181 596.168 274.702 596.332 275.168 596.497C274.126 596.661 273.056 597.045 272.59 597.923C271.575 599.843 274.757 601.9 278.131 603.601C281.504 605.274 284.247 605.274 285.948 604.506C287.182 603.957 288.828 603.217 289.651 602.888C289.98 605.137 290.474 606.179 289.788 607.797C288.663 610.485 286.058 610.239 280.819 608.346C276.156 606.673 272.316 604.78 268.997 602.312C265.678 599.843 265.651 599.541 265.212 597.868C264.608 595.537 267.982 594.248 273.605 596.003H273.632Z" fill="#2C353A"/>
<path d="M258.799 606.012C261.899 607.027 263.462 607.74 263.462 607.74C263.462 607.74 262.585 563.278 261.268 555.79C260.829 553.321 272.651 557.024 272.651 557.024C273.062 558.752 273.94 596.549 273.145 605.793C272.87 608.892 273.035 610.922 273.282 612.403C272.486 612.76 270.813 613.473 269.579 614.021C267.906 614.789 265.136 614.789 261.762 613.116C258.388 611.443 255.206 609.386 256.221 607.438C256.687 606.561 257.757 606.177 258.799 606.012V606.012Z" fill="#FFC4B2"/>
<path d="M257.232 605.491C257.781 605.656 258.302 605.821 258.768 605.985C257.726 606.15 256.656 606.534 256.19 607.411C255.175 609.331 258.357 611.389 261.73 613.089C265.104 614.762 267.847 614.762 269.548 613.994C270.782 613.446 272.428 612.705 273.25 612.376C273.58 614.625 274.073 615.667 273.388 617.286C272.263 619.974 269.657 619.727 264.418 617.834C259.755 616.161 255.915 614.269 252.597 611.8C249.278 609.359 249.25 609.03 248.811 607.357C248.208 605.025 251.582 603.736 257.205 605.491H257.232Z" fill="#2C353A"/>
<path d="M274.073 407.894C277.858 405.26 285.127 406.083 288.281 412.748C290.037 416.424 287.568 426.353 287.157 433.32C286.855 438.943 288.72 442.18 288.72 442.18L283.893 444.154C279.065 446.129 274.046 444.154 274.046 444.154L274.21 435.597C274.21 435.597 270.151 435.597 269.026 435.13C266.969 434.28 264.72 431.619 266.009 421.498C267.463 410.06 272.647 408.854 274.046 407.894H274.073Z" fill="#FFC4B2"/>
<path d="M263.156 488.755C264.528 478.332 263.76 469.747 263.76 469.747C263.76 469.747 259.371 459.681 262.827 452.741C266.283 445.802 269.246 444.129 272.537 443.004C276.048 441.825 288.885 438.506 288.885 438.506C288.885 438.506 293.438 439.329 295.577 456.088C296.62 464.371 290.119 482.502 294.535 493.473C300.953 509.409 298.54 554.969 298.54 554.969C298.54 554.969 280.629 565.858 270.096 565.145C254.708 564.102 250.128 557.136 250.128 557.136C250.868 538.868 256.711 515.471 258.301 509.135C261.319 497.094 262.142 496.436 263.156 488.81V488.755Z" fill="#7A92DA"/>
<path d="M282.852 404.248C287.927 405.318 292.836 409.816 296.484 415.823C294.29 425.752 290.011 431.265 280.027 431.156C279.177 428.468 276.406 427.535 273.554 424.573C270.674 421.583 266.971 419.197 266.614 415.247C265.846 407.183 270.592 401.642 282.852 404.221V404.248Z" fill="#703434"/>
<path d="M251.969 472.901C251.969 472.901 262.419 448.846 267.85 448.352C270.676 448.078 273.638 453.235 273.336 459.68C272.952 467.936 255.782 481.98 255.782 481.98C254.52 482.721 252.655 483.022 250.515 483.077C250.076 479.786 250.159 476.467 250.735 473.148C251.53 473.011 251.969 472.901 251.969 472.901Z" fill="#FFC4B2"/>
<path d="M273.359 423.198C274.566 427.998 270.397 429.589 270.397 429.589L269.08 423.198C269.08 423.198 272.097 418.041 273.386 423.198H273.359Z" fill="#FFC4B2"/>
<path d="M281.176 399.803C291.462 402.217 295.467 408.854 297.496 415.931C299.526 423.008 298.758 429.81 292.943 431.565C287.128 433.321 277.72 434.281 274.429 429.399C270.095 422.98 265.624 419.195 265.624 419.195C265.624 419.195 263.238 415.19 263.759 408.937C264.28 402.683 270.863 397.362 281.149 399.775L281.176 399.803Z" fill="#7A92DA"/>
<path d="M268.418 421.884C268.418 421.884 267.513 420.211 267.184 417.413C266.965 415.438 266.718 411.434 266.718 411.434C266.718 411.434 268.007 414.478 268.912 416.673C269.817 418.867 268.418 421.884 268.418 421.884Z" fill="#5C77BC"/>
<path d="M272.566 416.096C272.566 416.096 274.129 420.073 273.581 422.322C273.032 424.571 271.03 424.791 271.03 424.791C271.03 424.791 271.03 423.776 271.304 421.828C271.606 419.881 272.538 416.068 272.538 416.068L272.566 416.096Z" fill="#5C77BC"/>
<path d="M278.16 427.288C279.998 428.138 282.686 428.028 282.686 428.028C282.686 428.028 282.274 428.851 279.065 429.208C275.883 429.564 272.948 426.52 272.948 426.52C272.948 426.52 276.322 426.437 278.16 427.288V427.288Z" fill="#5C77BC"/>
<path d="M272.973 427.287C272.973 427.287 270.477 425.12 269.05 423.2C267.651 421.307 265.676 420.183 265.676 420.183L264.881 417.385C264.881 417.385 265.567 417.632 267.789 419.469C269.983 421.335 273 427.259 273 427.259L272.973 427.287Z" fill="#5C77BC"/>
<path d="M273.358 401.203C278.049 401.203 273.249 404.248 275.992 406.963C278.734 409.679 282.245 411.242 283.535 417.386C284.824 423.503 289.925 422.982 294.698 420.211C296.947 418.895 297.276 421.528 296.481 425.258C295.686 428.961 293.436 429.619 289.541 429.592C285.647 429.592 281.148 425.752 280.024 420.458C278.899 415.164 275.443 410.337 272.947 408.965C270.451 407.567 268.284 406.881 267.955 405.071C267.626 403.26 269.244 401.231 273.331 401.231L273.358 401.203Z" fill="#8FA9EA"/>
<path d="M279.12 437.628C285.346 436.229 287.184 435.488 287.184 435.488L288.885 438.451C288.885 438.451 279.477 442.016 269.218 444.54C269.218 444.54 272.894 439.027 279.12 437.628Z" fill="#5C77BC"/>
<path d="M237.404 469.334C237.404 469.334 241.985 469.801 243.466 470.24C244.947 470.706 245.742 471.09 247.745 470.02C249.774 468.95 250.131 470.541 251.228 470.02C252.325 469.499 259.676 454.742 262.09 451.78C264.504 448.79 266.671 446.651 269.221 447.666C275.448 450.107 275.832 458.61 274.543 464.233C273.281 469.856 261.706 481.184 258.414 483.049C255.123 484.914 252.133 484.283 248.403 483.049C242.506 481.101 237.075 478.578 234.387 477.563C231.562 471.337 237.376 469.307 237.376 469.307L237.404 469.334Z" fill="#5C77BC"/>
</g>
</svg>
