<svg width="82" height="245" viewBox="0 0 82 245" fill="none" xmlns="http://www.w3.org/2000/svg">
<path d="M15 0H67C75.2843 0 82 6.71572 82 15V24.7765C82 33.0607 75.2843 39.7765 67 39.7765H45.2369C36.9526 39.7765 30.2369 46.4922 30.2369 54.7765V78.3882C30.2369 86.6725 36.9526 93.3882 45.2369 93.3882H67C75.2843 93.3882 82 100.104 82 108.388V112.976C82 121.261 75.2843 127.976 67 127.976H45.2369C36.9526 127.976 30.2369 134.692 30.2369 142.976V171.2C30.2369 179.484 36.9526 186.2 45.2369 186.2H67C75.2843 186.2 82 192.916 82 201.2V230C82 238.284 75.2843 245 67 245H15C6.71573 245 0 238.284 0 230V15C0 6.71573 6.71573 0 15 0Z" fill="white"/>
</svg>
